<?plantuml 1.2026.2?><svg xmlns="http://www.w3.org/2000/svg" xmlns:xlink="http://www.w3.org/1999/xlink" contentStyleType="text/css" data-diagram-type="CLASS" height="893px" preserveAspectRatio="none" style="width:3329px;height:893px;background:#FFFFFF;" version="1.1" viewBox="0 0 3329 893" width="3329px" zoomAndPan="magnify"><title>Supermarket Inventory System - Diagrama de Clases de Estructuras</title><defs/><g><g class="title" data-source-line="1"><text fill="#000000" font-family="sans-serif" font-size="14" font-weight="bold" lengthAdjust="spacing" textLength="491.668" x="1411.8134" y="23.5352">Supermarket Inventory System - Diagrama de Clases de Estructuras</text></g><!--cluster models (referencias)--><g class="cluster" data-qualified-name="models .referencias." data-source-line="7" id="ent0002"><rect fill="none" height="223.04" rx="2.5" ry="2.5" style="stroke:#000000;stroke-width:1.5;" width="341" x="933" y="664.4983"/><text fill="#000000" font-family="sans-serif" font-size="14" font-weight="bold" lengthAdjust="spacing" textLength="147.9434" x="1029.5283" y="680.0334">models (referencias)</text></g><!--cluster structures--><g class="cluster" data-qualified-name="structures" data-source-line="28" id="ent0005"><rect fill="none" height="547.83" rx="2.5" ry="2.5" style="stroke:#000000;stroke-width:1.5;" width="1876" x="7" y="83.6683"/><text fill="#000000" font-family="sans-serif" font-size="14" font-weight="bold" lengthAdjust="spacing" textLength="73.9512" x="908.0244" y="99.2034">structures</text></g><!--class Product--><g class="entity" data-qualified-name="models .referencias..Product" data-source-line="8" id="ent0003"><rect fill="#F1F1F1" height="172.0391" rx="2.5" ry="2.5" style="stroke:#181818;stroke-width:0.5;" width="128.9561" x="948.52" y="699.4983"/><ellipse cx="983.7621" cy="719.8088" fill="#ADD1B2" rx="11" ry="11" style="stroke:#181818;stroke-width:1;"/><path d="M986.2352,725.9519 Q985.6542,726.2507 985.015,726.4001 Q984.3759,726.5496 983.6703,726.5496 Q981.1635,726.5496 979.8436,724.8977 Q978.5238,723.2458 978.5238,720.1247 Q978.5238,716.9954 979.8436,715.3435 Q981.1635,713.6916 983.6703,713.6916 Q984.3759,713.6916 985.0233,713.8411 Q985.6708,713.9905 986.2352,714.2893 L986.2352,717.012 Q985.6044,716.4309 985.0109,716.1611 Q984.4174,715.8913 983.7865,715.8913 Q982.4418,715.8913 981.757,716.958 Q981.0721,718.0246 981.0721,720.1247 Q981.0721,722.2165 981.757,723.2832 Q982.4418,724.3498 983.7865,724.3498 Q984.4174,724.3498 985.0109,724.0801 Q985.6044,723.8103 986.2352,723.2292 Z " fill="#000000"/><text fill="#000000" font-family="sans-serif" font-size="12" font-style="italic" lengthAdjust="spacing" textLength="48.8555" x="1003.8194" y="716.0998">&#171;model&#187;</text><text fill="#000000" font-family="sans-serif" font-size="14" lengthAdjust="spacing" textLength="51.9736" x="1002.2603" y="732.1663">Product</text><line style="stroke:#181818;stroke-width:0.5;" x1="949.52" x2="1076.4761" y1="740.1194" y2="740.1194"/><text fill="#000000" font-family="sans-serif" font-size="14" lengthAdjust="spacing" textLength="75.3799" x="954.52" y="757.6545">+name: str</text><text fill="#000000" font-family="sans-serif" font-size="14" lengthAdjust="spacing" textLength="92.7432" x="954.52" y="774.1428">+barcode: str</text><text fill="#000000" font-family="sans-serif" font-size="14" lengthAdjust="spacing" textLength="96.4004" x="954.52" y="790.6311">+category: str</text><text fill="#000000" font-family="sans-serif" font-size="14" lengthAdjust="spacing" textLength="116.9561" x="954.52" y="807.1194">+expiry_date: str</text><text fill="#000000" font-family="sans-serif" font-size="14" lengthAdjust="spacing" textLength="77.8613" x="954.52" y="823.6077">+brand: str</text><text fill="#000000" font-family="sans-serif" font-size="14" lengthAdjust="spacing" textLength="84.3076" x="954.52" y="840.0959">+price: float</text><text fill="#000000" font-family="sans-serif" font-size="14" lengthAdjust="spacing" textLength="74.2861" x="954.52" y="856.5842">+stock: int</text><line style="stroke:#181818;stroke-width:0.5;" x1="949.52" x2="1076.4761" y1="863.5373" y2="863.5373"/></g><!--class TransferRequest--><g class="entity" data-qualified-name="models .referencias..TransferRequest" data-source-line="18" id="ent0004"><rect fill="#F1F1F1" height="155.5508" rx="2.5" ry="2.5" style="stroke:#181818;stroke-width:0.5;" width="145.8408" x="1112.08" y="707.7483"/><ellipse cx="1128.296" cy="728.0588" fill="#ADD1B2" rx="11" ry="11" style="stroke:#181818;stroke-width:1;"/><path d="M1130.7691,734.2019 Q1130.1881,734.5007 1129.5489,734.6501 Q1128.9097,734.7996 1128.2042,734.7996 Q1125.6973,734.7996 1124.3775,733.1477 Q1123.0577,731.4958 1123.0577,728.3747 Q1123.0577,725.2454 1124.3775,723.5935 Q1125.6973,721.9416 1128.2042,721.9416 Q1128.9097,721.9416 1129.5572,722.0911 Q1130.2047,722.2405 1130.7691,722.5393 L1130.7691,725.262 Q1130.1383,724.6809 1129.5447,724.4111 Q1128.9512,724.1413 1128.3204,724.1413 Q1126.9757,724.1413 1126.2908,725.208 Q1125.606,726.2746 1125.606,728.3747 Q1125.606,730.4665 1126.2908,731.5332 Q1126.9757,732.5998 1128.3204,732.5998 Q1128.9512,732.5998 1129.5447,732.3301 Q1130.1383,732.0603 1130.7691,731.4792 Z " fill="#000000"/><text fill="#000000" font-family="sans-serif" font-size="12" font-style="italic" lengthAdjust="spacing" textLength="48.8555" x="1173.7078" y="724.3498">&#171;model&#187;</text><text fill="#000000" font-family="sans-serif" font-size="14" lengthAdjust="spacing" textLength="111.1387" x="1142.5662" y="740.4163">TransferRequest</text><line style="stroke:#181818;stroke-width:0.5;" x1="1113.08" x2="1256.9208" y1="748.3694" y2="748.3694"/><text fill="#000000" font-family="sans-serif" font-size="14" lengthAdjust="spacing" textLength="102.9424" x="1118.08" y="765.9045">+source_id: int</text><text fill="#000000" font-family="sans-serif" font-size="14" lengthAdjust="spacing" textLength="133.8408" x="1118.08" y="782.3928">+destination_id: int</text><text fill="#000000" font-family="sans-serif" font-size="14" lengthAdjust="spacing" textLength="92.7432" x="1118.08" y="798.8811">+barcode: str</text><text fill="#000000" font-family="sans-serif" font-size="14" lengthAdjust="spacing" textLength="93.7139" x="1118.08" y="815.3694">+quantity: int</text><text fill="#000000" font-family="sans-serif" font-size="14" lengthAdjust="spacing" textLength="70.9229" x="1118.08" y="831.8577">+path: list</text><text fill="#000000" font-family="sans-serif" font-size="14" lengthAdjust="spacing" textLength="95.1357" x="1118.08" y="848.3459">+criterion: str</text><line style="stroke:#181818;stroke-width:0.5;" x1="1113.08" x2="1256.9208" y1="855.2991" y2="855.2991"/></g><!--class Node--><g class="entity" data-qualified-name="structures.Node" data-source-line="29" id="ent0006"><rect fill="#F1F1F1" height="80.9766" rx="2.5" ry="2.5" style="stroke:#181818;stroke-width:0.5;" width="113.4727" x="490.26" y="534.5183"/><ellipse cx="525.9235" cy="550.5183" fill="#ADD1B2" rx="11" ry="11" style="stroke:#181818;stroke-width:1;"/><path d="M528.3967,556.6613 Q527.8156,556.9602 527.1765,557.1096 Q526.5373,557.259 525.8317,557.259 Q523.3249,557.259 522.0051,555.6071 Q520.6852,553.9553 520.6852,550.8342 Q520.6852,547.7048 522.0051,546.0529 Q523.3249,544.4011 525.8317,544.4011 Q526.5373,544.4011 527.1848,544.5505 Q527.8322,544.6999 528.3967,544.9988 L528.3967,547.7214 Q527.7658,547.1404 527.1723,546.8706 Q526.5788,546.6008 525.9479,546.6008 Q524.6032,546.6008 523.9184,547.6675 Q523.2336,548.7341 523.2336,550.8342 Q523.2336,552.926 523.9184,553.9926 Q524.6032,555.0593 525.9479,555.0593 Q526.5788,555.0593 527.1723,554.7895 Q527.7658,554.5197 528.3967,553.9387 Z " fill="#000000"/><text fill="#000000" font-family="sans-serif" font-size="14" lengthAdjust="spacing" textLength="35.5537" x="544.5154" y="555.8093">Node</text><line style="stroke:#181818;stroke-width:0.5;" x1="491.26" x2="602.7327" y1="566.5183" y2="566.5183"/><text fill="#000000" font-family="sans-serif" font-size="14" lengthAdjust="spacing" textLength="101.4727" x="496.26" y="584.0534">+data: Product</text><text fill="#000000" font-family="sans-serif" font-size="14" lengthAdjust="spacing" textLength="85.8525" x="496.26" y="600.5417">+next: Node</text><line style="stroke:#181818;stroke-width:0.5;" x1="491.26" x2="602.7327" y1="607.4948" y2="607.4948"/></g><!--class BaseLinkedList--><g class="entity" data-qualified-name="structures.BaseLinkedList" data-source-line="34" id="ent0007"><rect fill="#F1F1F1" height="130.4414" rx="2.5" ry="2.5" style="stroke:#181818;stroke-width:0.5;" width="287.7891" x="191.11" y="343.0783"/><ellipse cx="280.9547" cy="359.0783" fill="#A9DCDF" rx="11" ry="11" style="stroke:#181818;stroke-width:1;"/><path d="M280.818,354.4264 L279.6642,359.4982 L281.9801,359.4982 Z M279.3239,352.1852 L282.3204,352.1852 L285.6657,364.5783 L283.2169,364.5783 L282.4533,361.5153 L279.1745,361.5153 L278.4274,364.5783 L275.9787,364.5783 Z " fill="#000000"/><text fill="#000000" font-family="sans-serif" font-size="14" font-style="italic" lengthAdjust="spacing" textLength="99.5996" x="301.4547" y="364.3693">BaseLinkedList</text><line style="stroke:#181818;stroke-width:0.5;" x1="192.11" x2="477.8991" y1="375.0783" y2="375.0783"/><text fill="#000000" font-family="sans-serif" font-size="14" lengthAdjust="spacing" textLength="88.5732" x="197.11" y="392.6134">+head: Node</text><line style="stroke:#181818;stroke-width:0.5;" x1="192.11" x2="477.8991" y1="399.5666" y2="399.5666"/><text fill="#000000" font-family="sans-serif" font-size="14" lengthAdjust="spacing" textLength="196.1572" x="197.11" y="417.1017">+search_by_name(name: str)</text><text fill="#000000" font-family="sans-serif" font-size="14" lengthAdjust="spacing" textLength="230.8838" x="197.11" y="433.59">+search_by_barcode(barcode: str)</text><text fill="#000000" font-family="sans-serif" font-size="14" lengthAdjust="spacing" textLength="275.7891" x="197.11" y="450.0783">+remove_by_barcode(barcode: str): bool</text><text fill="#000000" font-family="sans-serif" font-size="14" lengthAdjust="spacing" textLength="132.0088" x="197.11" y="466.5666">+get_all_products()</text></g><!--class UnorderedLinkedList--><g class="entity" data-qualified-name="structures.UnorderedLinkedList" data-source-line="42" id="ent0008"><rect fill="#F1F1F1" height="64.4883" rx="2.5" ry="2.5" style="stroke:#181818;stroke-width:0.5;" width="184.751" x="22.62" y="168.1283"/><ellipse cx="43.1118" cy="184.1283" fill="#ADD1B2" rx="11" ry="11" style="stroke:#181818;stroke-width:1;"/><path d="M45.585,190.2713 Q45.0039,190.5702 44.3648,190.7196 Q43.7256,190.869 43.02,190.869 Q40.5132,190.869 39.1934,189.2171 Q37.8736,187.5653 37.8736,184.4442 Q37.8736,181.3148 39.1934,179.6629 Q40.5132,178.0111 43.02,178.0111 Q43.7256,178.0111 44.3731,178.1605 Q45.0205,178.3099 45.585,178.6088 L45.585,181.3314 Q44.9541,180.7504 44.3606,180.4806 Q43.7671,180.2108 43.1363,180.2108 Q41.7915,180.2108 41.1067,181.2775 Q40.4219,182.3441 40.4219,184.4442 Q40.4219,186.536 41.1067,187.6026 Q41.7915,188.6693 43.1363,188.6693 Q43.7671,188.6693 44.3606,188.3995 Q44.9541,188.1297 45.585,187.5487 Z " fill="#000000"/><text fill="#000000" font-family="sans-serif" font-size="14" lengthAdjust="spacing" textLength="140.5469" x="58.3323" y="189.4193">UnorderedLinkedList</text><line style="stroke:#181818;stroke-width:0.5;" x1="23.62" x2="206.371" y1="200.1283" y2="200.1283"/><line style="stroke:#181818;stroke-width:0.5;" x1="23.62" x2="206.371" y1="208.1283" y2="208.1283"/><text fill="#000000" font-family="sans-serif" font-size="14" lengthAdjust="spacing" textLength="172.751" x="28.62" y="225.6634">+insert(product: Product)</text></g><!--class OrderedLinkedList--><g class="entity" data-qualified-name="structures.OrderedLinkedList" data-source-line="46" id="ent0009"><rect fill="#F1F1F1" height="64.4883" rx="2.5" ry="2.5" style="stroke:#181818;stroke-width:0.5;" width="184.751" x="242.62" y="168.1283"/><ellipse cx="270.3624" cy="184.1283" fill="#ADD1B2" rx="11" ry="11" style="stroke:#181818;stroke-width:1;"/><path d="M272.8355,190.2713 Q272.2545,190.5702 271.6153,190.7196 Q270.9762,190.869 270.2706,190.869 Q267.7638,190.869 266.4439,189.2171 Q265.1241,187.5653 265.1241,184.4442 Q265.1241,181.3148 266.4439,179.6629 Q267.7638,178.0111 270.2706,178.0111 Q270.9762,178.0111 271.6236,178.1605 Q272.2711,178.3099 272.8355,178.6088 L272.8355,181.3314 Q272.2047,180.7504 271.6112,180.4806 Q271.0177,180.2108 270.3868,180.2108 Q269.0421,180.2108 268.3573,181.2775 Q267.6724,182.3441 267.6724,184.4442 Q267.6724,186.536 268.3573,187.6026 Q269.0421,188.6693 270.3868,188.6693 Q271.0177,188.6693 271.6112,188.3995 Q272.2047,188.1297 272.8355,187.5487 Z " fill="#000000"/><text fill="#000000" font-family="sans-serif" font-size="14" lengthAdjust="spacing" textLength="124.4346" x="287.194" y="189.4193">OrderedLinkedList</text><line style="stroke:#181818;stroke-width:0.5;" x1="243.62" x2="426.371" y1="200.1283" y2="200.1283"/><line style="stroke:#181818;stroke-width:0.5;" x1="243.62" x2="426.371" y1="208.1283" y2="208.1283"/><text fill="#000000" font-family="sans-serif" font-size="14" lengthAdjust="spacing" textLength="172.751" x="248.62" y="225.6634">+insert(product: Product)</text></g><!--class AVLNode--><g class="entity" data-qualified-name="structures.AVLNode" data-source-line="50" id="ent0010"><rect fill="#F1F1F1" height="113.9531" rx="2.5" ry="2.5" style="stroke:#181818;stroke-width:0.5;" width="137.0088" x="610.5" y="351.3283"/><ellipse cx="644.93" cy="367.3283" fill="#ADD1B2" rx="11" ry="11" style="stroke:#181818;stroke-width:1;"/><path d="M647.4031,373.4713 Q646.8221,373.7702 646.1829,373.9196 Q645.5438,374.069 644.8382,374.069 Q642.3313,374.069 641.0115,372.4171 Q639.6917,370.7653 639.6917,367.6442 Q639.6917,364.5148 641.0115,362.8629 Q642.3313,361.2111 644.8382,361.2111 Q645.5438,361.2111 646.1912,361.3605 Q646.8387,361.5099 647.4031,361.8087 L647.4031,364.5314 Q646.7723,363.9504 646.1788,363.6806 Q645.5853,363.4108 644.9544,363.4108 Q643.6097,363.4108 642.9249,364.4775 Q642.24,365.5441 642.24,367.6442 Q642.24,369.736 642.9249,370.8026 Q643.6097,371.8693 644.9544,371.8693 Q645.5853,371.8693 646.1788,371.5995 Q646.7723,371.3297 647.4031,370.7487 Z " fill="#000000"/><text fill="#000000" font-family="sans-serif" font-size="14" lengthAdjust="spacing" textLength="61.8311" x="663.2478" y="372.6193">AVLNode</text><line style="stroke:#181818;stroke-width:0.5;" x1="611.5" x2="746.5088" y1="383.3283" y2="383.3283"/><text fill="#000000" font-family="sans-serif" font-size="14" lengthAdjust="spacing" textLength="125.0088" x="616.5" y="400.8634">+product: Product</text><text fill="#000000" font-family="sans-serif" font-size="14" lengthAdjust="spacing" textLength="104.0498" x="616.5" y="417.3517">+left: AVLNode</text><text fill="#000000" font-family="sans-serif" font-size="14" lengthAdjust="spacing" textLength="114.249" x="616.5" y="433.84">+right: AVLNode</text><text fill="#000000" font-family="sans-serif" font-size="14" lengthAdjust="spacing" textLength="81.1494" x="616.5" y="450.3283">+height: int</text><line style="stroke:#181818;stroke-width:0.5;" x1="611.5" x2="746.5088" y1="457.2814" y2="457.2814"/></g><!--class AVLTree--><g class="entity" data-qualified-name="structures.AVLTree" data-source-line="57" id="ent0011"><rect fill="#F1F1F1" height="146.9297" rx="2.5" ry="2.5" style="stroke:#181818;stroke-width:0.5;" width="184.751" x="462.62" y="126.9083"/><ellipse cx="522.5165" cy="142.9083" fill="#ADD1B2" rx="11" ry="11" style="stroke:#181818;stroke-width:1;"/><path d="M524.9896,149.0513 Q524.4086,149.3502 523.7694,149.4996 Q523.1303,149.649 522.4247,149.649 Q519.9179,149.649 518.598,147.9971 Q517.2782,146.3453 517.2782,143.2242 Q517.2782,140.0948 518.598,138.4429 Q519.9179,136.7911 522.4247,136.7911 Q523.1303,136.7911 523.7777,136.9405 Q524.4252,137.0899 524.9896,137.3887 L524.9896,140.1114 Q524.3588,139.5304 523.7653,139.2606 Q523.1718,138.9908 522.5409,138.9908 Q521.1962,138.9908 520.5114,140.0575 Q519.8265,141.1241 519.8265,143.2242 Q519.8265,145.316 520.5114,146.3826 Q521.1962,147.4493 522.5409,147.4493 Q523.1718,147.4493 523.7653,147.1795 Q524.3588,146.9097 524.9896,146.3287 Z " fill="#000000"/><text fill="#000000" font-family="sans-serif" font-size="14" lengthAdjust="spacing" textLength="56.458" x="543.0165" y="148.1993">AVLTree</text><line style="stroke:#181818;stroke-width:0.5;" x1="463.62" x2="646.371" y1="158.9083" y2="158.9083"/><text fill="#000000" font-family="sans-serif" font-size="14" lengthAdjust="spacing" textLength="109.9834" x="468.62" y="176.4434">+root: AVLNode</text><line style="stroke:#181818;stroke-width:0.5;" x1="463.62" x2="646.371" y1="183.3966" y2="183.3966"/><text fill="#000000" font-family="sans-serif" font-size="14" lengthAdjust="spacing" textLength="172.751" x="468.62" y="200.9317">+insert(product: Product)</text><text fill="#000000" font-family="sans-serif" font-size="14" lengthAdjust="spacing" textLength="128.7412" x="468.62" y="217.42">+search(name: str)</text><text fill="#000000" font-family="sans-serif" font-size="14" lengthAdjust="spacing" textLength="134.7295" x="468.62" y="233.9083">+remove(name: str)</text><text fill="#000000" font-family="sans-serif" font-size="14" lengthAdjust="spacing" textLength="142.0234" x="468.62" y="250.3966">+in_order_traversal()</text><text fill="#000000" font-family="sans-serif" font-size="14" lengthAdjust="spacing" textLength="132.0088" x="468.62" y="266.8848">+get_all_products()</text></g><!--class HashTable--><g class="entity" data-qualified-name="structures.HashTable" data-source-line="66" id="ent0012"><rect fill="#F1F1F1" height="146.9297" rx="2.5" ry="2.5" style="stroke:#181818;stroke-width:0.5;" width="223.668" x="1286.17" y="126.9083"/><ellipse cx="1358.2105" cy="142.9083" fill="#ADD1B2" rx="11" ry="11" style="stroke:#181818;stroke-width:1;"/><path d="M1360.6837,149.0513 Q1360.1026,149.3502 1359.4635,149.4996 Q1358.8243,149.649 1358.1187,149.649 Q1355.6119,149.649 1354.2921,147.9971 Q1352.9722,146.3453 1352.9722,143.2242 Q1352.9722,140.0948 1354.2921,138.4429 Q1355.6119,136.7911 1358.1187,136.7911 Q1358.8243,136.7911 1359.4718,136.9405 Q1360.1192,137.0899 1360.6837,137.3887 L1360.6837,140.1114 Q1360.0528,139.5304 1359.4593,139.2606 Q1358.8658,138.9908 1358.2349,138.9908 Q1356.8902,138.9908 1356.2054,140.0575 Q1355.5206,141.1241 1355.5206,143.2242 Q1355.5206,145.316 1356.2054,146.3826 Q1356.8902,147.4493 1358.2349,147.4493 Q1358.8658,147.4493 1359.4593,147.1795 Q1360.0528,146.9097 1360.6837,146.3287 Z " fill="#000000"/><text fill="#000000" font-family="sans-serif" font-size="14" lengthAdjust="spacing" textLength="71.0869" x="1378.7105" y="148.1993">HashTable</text><line style="stroke:#181818;stroke-width:0.5;" x1="1287.17" x2="1508.838" y1="158.9083" y2="158.9083"/><text fill="#000000" font-family="sans-serif" font-size="14" lengthAdjust="spacing" textLength="93.1738" x="1292.17" y="176.4434">+capacity: int</text><text fill="#000000" font-family="sans-serif" font-size="14" lengthAdjust="spacing" textLength="74.0811" x="1292.17" y="192.9317">+table: list</text><line style="stroke:#181818;stroke-width:0.5;" x1="1287.17" x2="1508.838" y1="199.8848" y2="199.8848"/><text fill="#000000" font-family="sans-serif" font-size="14" lengthAdjust="spacing" textLength="211.668" x="1292.17" y="217.42">+insert(product: Product): bool</text><text fill="#000000" font-family="sans-serif" font-size="14" lengthAdjust="spacing" textLength="146.1045" x="1292.17" y="233.9083">+search(barcode: str)</text><text fill="#000000" font-family="sans-serif" font-size="14" lengthAdjust="spacing" textLength="191.0098" x="1292.17" y="250.3966">+remove(barcode: str): bool</text><text fill="#000000" font-family="sans-serif" font-size="14" lengthAdjust="spacing" textLength="132.0088" x="1292.17" y="266.8848">+get_all_products()</text></g><!--class BTreeNode--><g class="entity" data-qualified-name="structures.BTreeNode" data-source-line="75" id="ent0013"><rect fill="#F1F1F1" height="97.4648" rx="2.5" ry="2.5" style="stroke:#181818;stroke-width:0.5;" width="107.4365" x="870.28" y="359.5683"/><ellipse cx="886.0222" cy="375.5683" fill="#ADD1B2" rx="11" ry="11" style="stroke:#181818;stroke-width:1;"/><path d="M888.4954,381.7113 Q887.9143,382.0102 887.2752,382.1596 Q886.636,382.309 885.9304,382.309 Q883.4236,382.309 882.1038,380.6571 Q880.784,379.0053 880.784,375.8842 Q880.784,372.7548 882.1038,371.1029 Q883.4236,369.4511 885.9304,369.4511 Q886.636,369.4511 887.2835,369.6005 Q887.9309,369.7499 888.4954,370.0487 L888.4954,372.7714 Q887.8645,372.1904 887.271,371.9206 Q886.6775,371.6508 886.0467,371.6508 Q884.7019,371.6508 884.0171,372.7175 Q883.3323,373.7841 883.3323,375.8842 Q883.3323,377.976 884.0171,379.0426 Q884.7019,380.1093 886.0467,380.1093 Q886.6775,380.1093 887.271,379.8395 Q887.8645,379.5697 888.4954,378.9887 Z " fill="#000000"/><text fill="#000000" font-family="sans-serif" font-size="14" lengthAdjust="spacing" textLength="73.7871" x="900.1872" y="380.8593">BTreeNode</text><line style="stroke:#181818;stroke-width:0.5;" x1="871.28" x2="976.7165" y1="391.5683" y2="391.5683"/><text fill="#000000" font-family="sans-serif" font-size="14" lengthAdjust="spacing" textLength="70.8887" x="876.28" y="409.1034">+keys: list</text><text fill="#000000" font-family="sans-serif" font-size="14" lengthAdjust="spacing" textLength="95.4365" x="876.28" y="425.5917">+children: list</text><text fill="#000000" font-family="sans-serif" font-size="14" lengthAdjust="spacing" textLength="92.9551" x="876.28" y="442.08">+is_leaf: bool</text><line style="stroke:#181818;stroke-width:0.5;" x1="871.28" x2="976.7165" y1="449.0331" y2="449.0331"/></g><!--class BTree--><g class="entity" data-qualified-name="structures.BTree" data-source-line="81" id="ent0014"><rect fill="#F1F1F1" height="163.418" rx="2.5" ry="2.5" style="stroke:#181818;stroke-width:0.5;" width="337.6025" x="682.2" y="118.6683"/><ellipse cx="827.6346" cy="134.6683" fill="#ADD1B2" rx="11" ry="11" style="stroke:#181818;stroke-width:1;"/><path d="M830.1077,140.8113 Q829.5267,141.1102 828.8875,141.2596 Q828.2483,141.409 827.5428,141.409 Q825.0359,141.409 823.7161,139.7571 Q822.3963,138.1053 822.3963,134.9842 Q822.3963,131.8548 823.7161,130.2029 Q825.0359,128.5511 827.5428,128.5511 Q828.2483,128.5511 828.8958,128.7005 Q829.5433,128.8499 830.1077,129.1487 L830.1077,131.8714 Q829.4769,131.2904 828.8833,131.0206 Q828.2898,130.7508 827.659,130.7508 Q826.3143,130.7508 825.6294,131.8175 Q824.9446,132.8841 824.9446,134.9842 Q824.9446,137.076 825.6294,138.1426 Q826.3143,139.2093 827.659,139.2093 Q828.2898,139.2093 828.8833,138.9395 Q829.4769,138.6697 830.1077,138.0887 Z " fill="#000000"/><text fill="#000000" font-family="sans-serif" font-size="14" lengthAdjust="spacing" textLength="38.2334" x="848.1346" y="139.9593">BTree</text><line style="stroke:#181818;stroke-width:0.5;" x1="683.2" x2="1018.8025" y1="150.6683" y2="150.6683"/><text fill="#000000" font-family="sans-serif" font-size="14" lengthAdjust="spacing" textLength="121.9395" x="688.2" y="168.2034">+root: BTreeNode</text><text fill="#000000" font-family="sans-serif" font-size="14" lengthAdjust="spacing" textLength="117.4346" x="688.2" y="184.6917">+min_degree: int</text><line style="stroke:#181818;stroke-width:0.5;" x1="683.2" x2="1018.8025" y1="191.6448" y2="191.6448"/><text fill="#000000" font-family="sans-serif" font-size="14" lengthAdjust="spacing" textLength="170.3174" x="688.2" y="209.18">+search(expiry_date: str)</text><text fill="#000000" font-family="sans-serif" font-size="14" lengthAdjust="spacing" textLength="172.751" x="688.2" y="225.6683">+insert(product: Product)</text><text fill="#000000" font-family="sans-serif" font-size="14" lengthAdjust="spacing" textLength="325.6025" x="688.2" y="242.1566">+search_by_range(start_date: str, end_date: str)</text><text fill="#000000" font-family="sans-serif" font-size="14" lengthAdjust="spacing" textLength="176.3057" x="688.2" y="258.6448">+remove(expiry_date: str)</text><text fill="#000000" font-family="sans-serif" font-size="14" lengthAdjust="spacing" textLength="132.0088" x="688.2" y="275.1331">+get_all_products()</text></g><!--class BPlusTreeNode--><g class="entity" data-qualified-name="structures.BPlusTreeNode" data-source-line="91" id="ent0015"><rect fill="#F1F1F1" height="130.4414" rx="2.5" ry="2.5" style="stroke:#181818;stroke-width:0.5;" width="163.6963" x="1046.15" y="343.0783"/><ellipse cx="1074.7845" cy="359.0783" fill="#ADD1B2" rx="11" ry="11" style="stroke:#181818;stroke-width:1;"/><path d="M1077.2576,365.2213 Q1076.6766,365.5202 1076.0374,365.6696 Q1075.3982,365.819 1074.6927,365.819 Q1072.1858,365.819 1070.866,364.1671 Q1069.5462,362.5153 1069.5462,359.3942 Q1069.5462,356.2648 1070.866,354.6129 Q1072.1858,352.9611 1074.6927,352.9611 Q1075.3982,352.9611 1076.0457,353.1105 Q1076.6932,353.2599 1077.2576,353.5587 L1077.2576,356.2814 Q1076.6268,355.7004 1076.0333,355.4306 Q1075.4397,355.1608 1074.8089,355.1608 Q1073.4642,355.1608 1072.7793,356.2275 Q1072.0945,357.2941 1072.0945,359.3942 Q1072.0945,361.486 1072.7793,362.5526 Q1073.4642,363.6193 1074.8089,363.6193 Q1075.4397,363.6193 1076.0333,363.3495 Q1076.6268,363.0797 1077.2576,362.4987 Z " fill="#000000"/><text fill="#000000" font-family="sans-serif" font-size="14" lengthAdjust="spacing" textLength="101.3975" x="1091.8144" y="364.3693">BPlusTreeNode</text><line style="stroke:#181818;stroke-width:0.5;" x1="1047.15" x2="1208.8463" y1="375.0783" y2="375.0783"/><text fill="#000000" font-family="sans-serif" font-size="14" lengthAdjust="spacing" textLength="70.8887" x="1052.15" y="392.6134">+keys: list</text><text fill="#000000" font-family="sans-serif" font-size="14" lengthAdjust="spacing" textLength="83.1045" x="1052.15" y="409.1017">+values: list</text><text fill="#000000" font-family="sans-serif" font-size="14" lengthAdjust="spacing" textLength="95.4365" x="1052.15" y="425.59">+children: list</text><text fill="#000000" font-family="sans-serif" font-size="14" lengthAdjust="spacing" textLength="92.9551" x="1052.15" y="442.0783">+is_leaf: bool</text><text fill="#000000" font-family="sans-serif" font-size="14" lengthAdjust="spacing" textLength="151.6963" x="1052.15" y="458.5666">+next: BPlusTreeNode</text><line style="stroke:#181818;stroke-width:0.5;" x1="1047.15" x2="1208.8463" y1="465.5197" y2="465.5197"/></g><!--class BPlusTree--><g class="entity" data-qualified-name="structures.BPlusTree" data-source-line="99" id="ent0016"><rect fill="#F1F1F1" height="163.418" rx="2.5" ry="2.5" style="stroke:#181818;stroke-width:0.5;" width="196.3584" x="1054.82" y="118.6683"/><ellipse cx="1115.8273" cy="134.6683" fill="#ADD1B2" rx="11" ry="11" style="stroke:#181818;stroke-width:1;"/><path d="M1118.3005,140.8113 Q1117.7194,141.1102 1117.0803,141.2596 Q1116.4411,141.409 1115.7355,141.409 Q1113.2287,141.409 1111.9089,139.7571 Q1110.589,138.1053 1110.589,134.9842 Q1110.589,131.8548 1111.9089,130.2029 Q1113.2287,128.5511 1115.7355,128.5511 Q1116.4411,128.5511 1117.0886,128.7005 Q1117.736,128.8499 1118.3005,129.1487 L1118.3005,131.8714 Q1117.6696,131.2904 1117.0761,131.0206 Q1116.4826,130.7508 1115.8517,130.7508 Q1114.507,130.7508 1113.8222,131.8175 Q1113.1374,132.8841 1113.1374,134.9842 Q1113.1374,137.076 1113.8222,138.1426 Q1114.507,139.2093 1115.8517,139.2093 Q1116.4826,139.2093 1117.0761,138.9395 Q1117.6696,138.6697 1118.3005,138.0887 Z " fill="#000000"/><text fill="#000000" font-family="sans-serif" font-size="14" lengthAdjust="spacing" textLength="65.8438" x="1136.3273" y="139.9593">BPlusTree</text><line style="stroke:#181818;stroke-width:0.5;" x1="1055.82" x2="1250.1784" y1="150.6683" y2="150.6683"/><text fill="#000000" font-family="sans-serif" font-size="14" lengthAdjust="spacing" textLength="149.5498" x="1060.82" y="168.2034">+root: BPlusTreeNode</text><text fill="#000000" font-family="sans-serif" font-size="14" lengthAdjust="spacing" textLength="117.4346" x="1060.82" y="184.6917">+min_degree: int</text><line style="stroke:#181818;stroke-width:0.5;" x1="1055.82" x2="1250.1784" y1="191.6448" y2="191.6448"/><text fill="#000000" font-family="sans-serif" font-size="14" lengthAdjust="spacing" textLength="163.9258" x="1060.82" y="209.18">+find_leaf(category: str)</text><text fill="#000000" font-family="sans-serif" font-size="14" lengthAdjust="spacing" textLength="149.7617" x="1060.82" y="225.6683">+search(category: str)</text><text fill="#000000" font-family="sans-serif" font-size="14" lengthAdjust="spacing" textLength="172.751" x="1060.82" y="242.1566">+insert(product: Product)</text><text fill="#000000" font-family="sans-serif" font-size="14" lengthAdjust="spacing" textLength="184.3584" x="1060.82" y="258.6448">+remove(product: Product)</text><text fill="#000000" font-family="sans-serif" font-size="14" lengthAdjust="spacing" textLength="132.0088" x="1060.82" y="275.1331">+get_all_products()</text></g><!--class TransferQueue--><g class="entity" data-qualified-name="structures.TransferQueue" data-source-line="109" id="ent0017"><rect fill="#F1F1F1" height="163.418" rx="2.5" ry="2.5" style="stroke:#181818;stroke-width:0.5;" width="321.9072" x="1545.05" y="118.6683"/><ellipse cx="1651.4206" cy="134.6683" fill="#ADD1B2" rx="11" ry="11" style="stroke:#181818;stroke-width:1;"/><path d="M1653.8938,140.8113 Q1653.3127,141.1102 1652.6735,141.2596 Q1652.0344,141.409 1651.3288,141.409 Q1648.822,141.409 1647.5021,139.7571 Q1646.1823,138.1053 1646.1823,134.9842 Q1646.1823,131.8548 1647.5021,130.2029 Q1648.822,128.5511 1651.3288,128.5511 Q1652.0344,128.5511 1652.6818,128.7005 Q1653.3293,128.8499 1653.8938,129.1487 L1653.8938,131.8714 Q1653.2629,131.2904 1652.6694,131.0206 Q1652.0759,130.7508 1651.445,130.7508 Q1650.1003,130.7508 1649.4155,131.8175 Q1648.7307,132.8841 1648.7307,134.9842 Q1648.7307,137.076 1649.4155,138.1426 Q1650.1003,139.2093 1651.445,139.2093 Q1652.0759,139.2093 1652.6694,138.9395 Q1653.2629,138.6697 1653.8938,138.0887 Z " fill="#000000"/><text fill="#000000" font-family="sans-serif" font-size="14" lengthAdjust="spacing" textLength="100.666" x="1671.9206" y="139.9593">TransferQueue</text><line style="stroke:#181818;stroke-width:0.5;" x1="1546.05" x2="1865.9572" y1="150.6683" y2="150.6683"/><text fill="#000000" font-family="sans-serif" font-size="14" lengthAdjust="spacing" textLength="77.7451" x="1551.05" y="168.2034">+items: list</text><line style="stroke:#181818;stroke-width:0.5;" x1="1546.05" x2="1865.9572" y1="175.1566" y2="175.1566"/><text fill="#000000" font-family="sans-serif" font-size="14" lengthAdjust="spacing" textLength="309.9072" x="1551.05" y="192.6917">+enqueue(transfer_request: TransferRequest)</text><text fill="#000000" font-family="sans-serif" font-size="14" lengthAdjust="spacing" textLength="78.6338" x="1551.05" y="209.18">+dequeue()</text><text fill="#000000" font-family="sans-serif" font-size="14" lengthAdjust="spacing" textLength="52.8281" x="1551.05" y="225.6683">+peek()</text><text fill="#000000" font-family="sans-serif" font-size="14" lengthAdjust="spacing" textLength="80.6504" x="1551.05" y="242.1566">+is_empty()</text><text fill="#000000" font-family="sans-serif" font-size="14" lengthAdjust="spacing" textLength="47.2432" x="1551.05" y="258.6448">+size()</text><text fill="#000000" font-family="sans-serif" font-size="14" lengthAdjust="spacing" textLength="64.8252" x="1551.05" y="275.1331">+get_all()</text></g><g class="entity" data-qualified-name="GMN31" data-source-line="141" id="ent0032"><path d="M1902.36,164.7483 L1902.36,235.9905 L2115.6369,235.9905 L2115.6369,174.7483 L2105.6369,164.7483 L1902.36,164.7483" fill="#FEFFDD" style="stroke:#181818;stroke-width:0.5;"/><path d="M2105.6369,164.7483 L2105.6369,174.7483 L2115.6369,174.7483 L2105.6369,164.7483" fill="#FEFFDD" style="stroke:#181818;stroke-width:1;"/><text fill="#000000" font-family="sans-serif" font-size="13" lengthAdjust="spacing" textLength="118.2632" x="1908.36" y="182.3166">Inserci&#243;n al frente.</text><text fill="#000000" font-family="sans-serif" font-size="13" lengthAdjust="spacing" textLength="148.5415" x="1908.36" y="197.6272">Se usa como base para:</text><text fill="#000000" font-family="sans-serif" font-size="13" lengthAdjust="spacing" textLength="138.7788" x="1908.36" y="212.9377">- recorrido secuencial</text><text fill="#000000" font-family="sans-serif" font-size="13" lengthAdjust="spacing" textLength="192.2769" x="1908.36" y="228.2483">- benchmark de lista enlazada</text></g><g class="entity" data-qualified-name="GMN34" data-source-line="148" id="ent0035"><path d="M2150.49,172.4083 L2150.49,228.3399 L2323.5037,228.3399 L2323.5037,182.4083 L2313.5037,172.4083 L2150.49,172.4083" fill="#FEFFDD" style="stroke:#181818;stroke-width:0.5;"/><path d="M2313.5037,172.4083 L2313.5037,182.4083 L2323.5037,182.4083 L2313.5037,172.4083" fill="#FEFFDD" style="stroke:#181818;stroke-width:1;"/><text fill="#000000" font-family="sans-serif" font-size="13" lengthAdjust="spacing" textLength="120.415" x="2156.49" y="189.9766">&#205;ndice por nombre.</text><text fill="#000000" font-family="sans-serif" font-size="13" lengthAdjust="spacing" textLength="86.709" x="2156.49" y="205.2872">Uso principal:</text><text fill="#000000" font-family="sans-serif" font-size="13" lengthAdjust="spacing" textLength="152.0137" x="2156.49" y="220.5977">- b&#250;squeda por nombre</text></g><g class="entity" data-qualified-name="GMN37" data-source-line="154" id="ent0038"><path d="M2358.98,172.4083 L2358.98,228.3399 L2579.0171,228.3399 L2579.0171,182.4083 L2569.0171,172.4083 L2358.98,172.4083" fill="#FEFFDD" style="stroke:#181818;stroke-width:0.5;"/><path d="M2569.0171,172.4083 L2569.0171,182.4083 L2579.0171,182.4083 L2569.0171,172.4083" fill="#FEFFDD" style="stroke:#181818;stroke-width:1;"/><text fill="#000000" font-family="sans-serif" font-size="13" lengthAdjust="spacing" textLength="177.6138" x="2364.98" y="189.9766">&#205;ndice por c&#243;digo de barras.</text><text fill="#000000" font-family="sans-serif" font-size="13" lengthAdjust="spacing" textLength="86.709" x="2364.98" y="205.2872">Uso principal:</text><text fill="#000000" font-family="sans-serif" font-size="13" lengthAdjust="spacing" textLength="199.0371" x="2364.98" y="220.5977">- b&#250;squeda exacta por barcode</text></g><g class="entity" data-qualified-name="GMN40" data-source-line="160" id="ent0041"><path d="M2613.59,180.0583 L2613.59,220.6794 L2836.401,220.6794 L2836.401,190.0583 L2826.401,180.0583 L2613.59,180.0583" fill="#FEFFDD" style="stroke:#181818;stroke-width:0.5;"/><path d="M2826.401,180.0583 L2826.401,190.0583 L2836.401,190.0583 L2826.401,180.0583" fill="#FEFFDD" style="stroke:#181818;stroke-width:1;"/><text fill="#000000" font-family="sans-serif" font-size="13" lengthAdjust="spacing" textLength="201.811" x="2619.59" y="197.6266">Agrupa productos por categor&#237;a</text><text fill="#000000" font-family="sans-serif" font-size="13" lengthAdjust="spacing" textLength="124.3315" x="2619.59" y="212.9372">en hojas enlazadas.</text></g><g class="entity" data-qualified-name="GMN43" data-source-line="165" id="ent0044"><path d="M2871.26,180.0583 L2871.26,220.6794 L3088.7454,220.6794 L3088.7454,190.0583 L3078.7454,180.0583 L2871.26,180.0583" fill="#FEFFDD" style="stroke:#181818;stroke-width:0.5;"/><path d="M3078.7454,180.0583 L3078.7454,190.0583 L3088.7454,190.0583 L3078.7454,180.0583" fill="#FEFFDD" style="stroke:#181818;stroke-width:1;"/><text fill="#000000" font-family="sans-serif" font-size="13" lengthAdjust="spacing" textLength="196.4854" x="2877.26" y="197.6266">Mantiene productos ordenados</text><text fill="#000000" font-family="sans-serif" font-size="13" lengthAdjust="spacing" textLength="153.4165" x="2877.26" y="212.9372">por fecha de expiraci&#243;n.</text></g><g class="entity" data-qualified-name="GMN46" data-source-line="170" id="ent0047"><path d="M3123.7,180.0583 L3123.7,220.6794 L3322.2947,220.6794 L3322.2947,190.0583 L3312.2947,180.0583 L3123.7,180.0583" fill="#FEFFDD" style="stroke:#181818;stroke-width:0.5;"/><path d="M3312.2947,180.0583 L3312.2947,190.0583 L3322.2947,190.0583 L3312.2947,180.0583" fill="#FEFFDD" style="stroke:#181818;stroke-width:1;"/><text fill="#000000" font-family="sans-serif" font-size="13" lengthAdjust="spacing" textLength="137.6045" x="3129.7" y="197.6266">Cola FIFO simple para</text><text fill="#000000" font-family="sans-serif" font-size="13" lengthAdjust="spacing" textLength="177.5947" x="3129.7" y="212.9372">solicitudes de transferencia.</text></g><!--reverse link BaseLinkedList to Node--><g class="link" data-entity-1="ent0007" data-entity-2="ent0006" data-link-type="composition" data-source-line="120" id="lnk18"><path codeLine="120" d="M427.6557,481.291 C453.7557,501.571 472.32,515.9883 495.55,534.0383" fill="none" id="BaseLinkedList-backto-Node" style="stroke:#181818;stroke-width:1;"/><polygon fill="#181818" points="418.18,473.9283,420.4636,480.7682,427.6557,481.291,425.3721,474.4511,418.18,473.9283" style="stroke:#181818;stroke-width:1;"/></g><!--link Node to Product--><g class="link" data-entity-1="ent0006" data-entity-2="ent0003" data-link-type="dependency" data-source-line="121" id="lnk19"><path codeLine="121" d="M604.14,601.5783 C691.27,640.5683 851.3631,712.198 942.8031,753.108" fill="none" id="Node-to-Product" style="stroke:#181818;stroke-width:1;"/><polygon fill="#181818" points="948.28,755.5583,941.6983,748.2316,943.716,753.5163,938.4312,755.534,948.28,755.5583" style="stroke:#181818;stroke-width:1;"/></g><!--link UnorderedLinkedList to BaseLinkedList--><g class="link" data-entity-1="ent0008" data-entity-2="ent0007" data-link-type="extension" data-source-line="123" id="lnk20"><path codeLine="123" d="M148.89,233.0983 C179.99,262.2083 213.8578,293.9086 252.8578,330.4086" fill="none" id="UnorderedLinkedList-to-BaseLinkedList" style="stroke:#181818;stroke-width:1;"/><polygon fill="none" points="266,342.7083,256.9577,326.0278,248.7579,334.7893,266,342.7083" style="stroke:#181818;stroke-width:1;"/></g><!--link OrderedLinkedList to BaseLinkedList--><g class="link" data-entity-1="ent0009" data-entity-2="ent0007" data-link-type="extension" data-source-line="124" id="lnk21"><path codeLine="124" d="M335,233.0983 C335,262.2083 335,288.2083 335,324.7083" fill="none" id="OrderedLinkedList-to-BaseLinkedList" style="stroke:#181818;stroke-width:1;"/><polygon fill="none" points="335,342.7083,341,324.7083,329,324.7083,335,342.7083" style="stroke:#181818;stroke-width:1;"/></g><!--reverse link AVLTree to AVLNode--><g class="link" data-entity-1="ent0011" data-entity-2="ent0010" data-link-type="composition" data-source-line="126" id="lnk22"><path codeLine="126" d="M605.0813,284.5478 C620.2713,309.7678 630.86,327.3483 645.12,351.0283" fill="none" id="AVLTree-backto-AVLNode" style="stroke:#181818;stroke-width:1;"/><polygon fill="#181818" points="598.89,274.2683,598.5592,281.4718,605.0813,284.5478,605.4122,277.3442,598.89,274.2683" style="stroke:#181818;stroke-width:1;"/></g><!--link AVLNode to Product--><g class="link" data-entity-1="ent0010" data-entity-2="ent0003" data-link-type="dependency" data-source-line="127" id="lnk23"><path codeLine="127" d="M729,465.4783 C787.42,531.0983 880.2307,635.3666 944.3207,707.3666" fill="none" id="AVLNode-to-Product" style="stroke:#181818;stroke-width:1;"/><polygon fill="#181818" points="948.31,711.8483,945.3138,702.4662,944.9856,708.1136,939.3383,707.7853,948.31,711.8483" style="stroke:#181818;stroke-width:1;"/></g><!--link HashTable to Product--><g class="link" data-entity-1="ent0012" data-entity-2="ent0003" data-link-type="dependency" data-source-line="129" id="lnk24"><path codeLine="129" d="M1375.19,274.1583 C1355.7,330.8683 1324.56,410.3183 1285,473.5183 C1232.72,557.0483 1218.7,582.9483 1138,639.4983 C1121.17,651.2883 1110.87,643.4383 1095,656.4983 C1080.53,668.4083 1071.1984,678.6273 1060.3284,694.3073" fill="none" id="HashTable-to-Product" style="stroke:#181818;stroke-width:1;stroke-dasharray:7,7;"/><polygon fill="#181818" points="1056.91,699.2383,1065.3249,694.1207,1059.7586,695.1291,1058.7502,689.5629,1056.91,699.2383" style="stroke:#181818;stroke-width:1;"/></g><!--reverse link BTree to BTreeNode--><g class="link" data-entity-1="ent0014" data-entity-2="ent0013" data-link-type="composition" data-source-line="131" id="lnk25"><path codeLine="131" d="M883.7568,293.7796 C892.9668,319.7796 898.87,336.4183 906.97,359.2683" fill="none" id="BTree-backto-BTreeNode" style="stroke:#181818;stroke-width:1;"/><polygon fill="#181818" points="879.75,282.4683,877.983,289.4595,883.7568,293.7796,885.5238,286.7883,879.75,282.4683" style="stroke:#181818;stroke-width:1;"/></g><!--link BTreeNode to Product--><g class="link" data-entity-1="ent0013" data-entity-2="ent0003" data-link-type="dependency" data-source-line="132" id="lnk26"><path codeLine="132" d="M935.36,457.2083 C949.8,518.0583 973.5753,618.3002 991.3353,693.1802" fill="none" id="BTreeNode-to-Product" style="stroke:#181818;stroke-width:1;"/><polygon fill="#181818" points="992.72,699.0183,994.535,689.3381,991.5661,694.1532,986.751,691.1843,992.72,699.0183" style="stroke:#181818;stroke-width:1;"/><text fill="#000000" font-family="sans-serif" font-size="13" lengthAdjust="spacing" textLength="28.2598" x="979.44" y="580.0766">keys</text></g><!--reverse link BPlusTree to BPlusTreeNode--><g class="link" data-entity-1="ent0016" data-entity-2="ent0015" data-link-type="composition" data-source-line="134" id="lnk27"><path codeLine="134" d="M1141.7089,294.3802 C1139.2689,314.4102 1138.15,323.6883 1135.83,342.8183" fill="none" id="BPlusTree-backto-BPlusTreeNode" style="stroke:#181818;stroke-width:1;"/><polygon fill="#181818" points="1143.16,282.4683,1138.4638,287.9406,1141.7089,294.3802,1146.4051,288.9079,1143.16,282.4683" style="stroke:#181818;stroke-width:1;"/></g><!--link BPlusTreeNode to Product--><g class="link" data-entity-1="ent0015" data-entity-2="ent0003" data-link-type="dependency" data-source-line="135" id="lnk28"><path codeLine="135" d="M1108.23,473.8083 C1089.16,536.0383 1061.9286,624.8818 1040.9386,693.3518" fill="none" id="BPlusTreeNode-to-Product" style="stroke:#181818;stroke-width:1;"/><polygon fill="#181818" points="1039.18,699.0883,1045.6422,691.6559,1040.6455,694.3079,1037.9935,689.3112,1039.18,699.0883" style="stroke:#181818;stroke-width:1;"/><text fill="#000000" font-family="sans-serif" font-size="13" lengthAdjust="spacing" textLength="39.603" x="1090.35" y="580.0766">values</text></g><!--link BPlusTreeNode to BPlusTreeNode--><g class="link" data-entity-1="ent0015" data-entity-2="ent0015" data-link-type="dependency" data-source-line="136" id="lnk29"><path codeLine="136" d="M1210.17,390.6483 C1230.07,391.9983 1244.85,397.8783 1244.85,408.2983 C1244.85,418.7283 1236.0564,424.2052 1216.1564,425.5452" fill="none" id="BPlusTreeNode-to-BPlusTreeNode" style="stroke:#181818;stroke-width:1;"/><polygon fill="#181818" points="1210.17,425.9483,1219.4184,429.3346,1215.1587,425.6124,1218.8809,421.3527,1210.17,425.9483" style="stroke:#181818;stroke-width:1;"/><text fill="#000000" font-family="sans-serif" font-size="13" lengthAdjust="spacing" textLength="28.1455" x="1250.85" y="413.3666">next</text></g><!--link TransferQueue to TransferRequest--><g class="link" data-entity-1="ent0017" data-entity-2="ent0004" data-link-type="dependency" data-source-line="138" id="lnk30"><path codeLine="138" d="M1633.56,282.4583 C1533.04,394.9683 1356.5276,592.524 1257.9176,702.894" fill="none" id="TransferQueue-to-TransferRequest" style="stroke:#181818;stroke-width:1;"/><polygon fill="#181818" points="1253.92,707.3683,1262.8992,703.3219,1257.2513,703.6397,1256.9335,697.9918,1253.92,707.3683" style="stroke:#181818;stroke-width:1;"/></g><!--link UnorderedLinkedList to GMN31--><g class="link" data-entity-1="ent0008" data-entity-2="ent0032" data-link-type="association" data-source-line="141" id="lnk33"><path d="M132.24,167.7283 C152.94,132.7083 191.38,79.5783 242.5,60.6683 C284.78,45.0183 1823.22,45.0183 1865.5,60.6683 C1917.68,79.9683 1960.69,129.7183 1985.61,164.3083" fill="none" id="UnorderedLinkedList-GMN31" style="stroke:#181818;stroke-width:1;stroke-dasharray:7,7;"/></g><!--link AVLTree to GMN34--><g class="link" data-entity-1="ent0011" data-entity-2="ent0035" data-link-type="association" data-source-line="148" id="lnk36"><path d="M600.22,126.6183 C621.35,99.7583 649.24,72.9683 682.5,60.6683 C719.83,46.8483 2078.17,46.8483 2115.5,60.6683 C2167.66,79.9583 2204.81,136.9783 2223.41,171.9183" fill="none" id="AVLTree-GMN34" style="stroke:#181818;stroke-width:1;stroke-dasharray:7,7;"/></g><!--link HashTable to GMN37--><g class="link" data-entity-1="ent0012" data-entity-2="ent0038" data-link-type="association" data-source-line="154" id="lnk39"><path d="M1454.11,126.4183 C1478.82,100.0683 1510.27,73.6983 1545.5,60.6683 C1586.04,45.6683 2282.96,45.6683 2323.5,60.6683 C2380.16,81.6183 2426.52,137.7683 2450.74,172.1683" fill="none" id="HashTable-GMN37" style="stroke:#181818;stroke-width:1;stroke-dasharray:7,7;"/></g><!--link BPlusTree to GMN40--><g class="link" data-entity-1="ent0016" data-entity-2="ent0041" data-link-type="association" data-source-line="160" id="lnk42"><path d="M1208.53,118.3283 C1229.7,94.5083 1256.14,71.8983 1286.5,60.6683 C1320.19,48.1983 2545.81,48.1983 2579.5,60.6683 C2640.59,83.2583 2689.72,146.7783 2712.02,179.8183" fill="none" id="BPlusTree-GMN40" style="stroke:#181818;stroke-width:1;stroke-dasharray:7,7;"/></g><!--link BTree to GMN43--><g class="link" data-entity-1="ent0014" data-entity-2="ent0044" data-link-type="association" data-source-line="165" id="lnk45"><path d="M945.35,118.2283 C977.77,94.9583 1015.72,72.6983 1054.5,60.6683 C1101.78,45.9983 2790.07,43.4883 2836.5,60.6683 C2897.16,83.0983 2945.42,146.6883 2967.29,179.7783" fill="none" id="BTree-GMN43" style="stroke:#181818;stroke-width:1;stroke-dasharray:7,7;"/></g><!--link TransferQueue to GMN46--><g class="link" data-entity-1="ent0017" data-entity-2="ent0047" data-link-type="association" data-source-line="170" id="lnk48"><path d="M1796.45,118.4483 C1827.79,95.1183 1864.62,72.7583 1902.5,60.6683 C1933.88,50.6483 3057.6,49.2383 3088.5,60.6683 C3147.23,82.3883 3191.62,146.2983 3211.5,179.6183" fill="none" id="TransferQueue-GMN46" style="stroke:#181818;stroke-width:1;stroke-dasharray:7,7;"/></g><?plantuml-src fLRDSkGq4BxhALHxcW4cnNbgArN9mXQf2cHXibnTRQl75YDBZYI7p48UOH-5qzwupelHybzappW9SBDR_QVlQtMtbruXtzGLsXBi3Zs_qlUelR5xljaxZoLVyUyav1PAu0BvEmKENVZwtdbRPxwsu1XpEwah82MUaOAxyDxAjFPubHczaP-GVnkfk0A4-Ltgd6z1EOnEAiXsaEF6xoahYva7dIjah9FpDwKHg1nVMDoYHPr9SCit_0_6sxZyWpM2ak9ltpQQv-VD6UTVQoXnpIdbzZS5cv529Cd0OqxNZaJuK4cxJmITnAOMj8Z-AoipEjyg0xwLE6-otPfB7VuVsP3SBLawoliNlAlHdKZIcTfcc4ZH6vDCaARKuANHuuFZAzpLeBtq-qYf0b-ikPAk-y-iz6Z9Ls_so1uZU7jAqSMW_aHX-XG935ZtC7VGueDVDqhzTI4bHq0qjFQNL3BNKkzGN5CYlQS2GGncuV985ogIT9y4hXO3OSlfSNVnHGn0fsInDFSugxJcgJ6gLStH9w1KKhLNSOlbcAoFsbX1DIQECvVQeVMBpd90O-BWvl-PN_nw7UC-rMwb2hSawbGx26HUJ6K5jiAZYYIjMuj346lCrFIPP0TIZhXgQJWIIvqqc2PK7FTe7QZ5ydLa_02kk8LK3PbcG3KxBdKVpkDQdqizheBk0hEbzD_hvp806pEumxqRFSL2Aa4zR9IoInJ2TeWpzJScQWZH2al2Ls1EiWYLxeBJLhPyFRlXDL7Zod7XF5Z_vECRZbeSkUnmcmdu8ceVLErUGkuU5FNFVulbqAb6CMR2Ju2UMCo1lPK4I0Yw64sJyMCvTVGy3nsaCwSlGTfFdPzhh8TxqHGeHmYYlWld2zzf9xOTKklfr5hsOwdLxtuhn5t_JS1ZMVbz_-ze_ayUUfSZPJcP3L-jLkr8QFXVhSw7ViTEDUJLwi_poNXXDw_IOdth2n7xZjVtt57SfzvpTXQ9BmVhfsVuzEOZ3tpDGm6JnL1SZTMefiPrFxPko_s4obYovg6y6Hlp7VGc33AcZQVrAim4RhQd9Xsx2WMPoSCNpK7nBJqjZsTiWxnsm3DJ6fuIdZniRMks2gkQiLOAmnrcTRENAHAdz5M4lJBiYw7MW5g6WayWW57lu26FQJOTB-pmMGjQh7XbBEcLgQNu7vtXj6wH-mfKY9iU_dPq9m6HsgpdWSYHx-pmHSZSX0ofrzCo-smOVA2rfetMJORPS0Cxx2AtTKL6BQF6jN7RDd3uAq312_CRk04Soc7MQ-Fnnx3eeSR8P-1GqrxjMF2-nQnezlMc3qF3vBpJKScmTqO1Vt_r_eOxMLQgPPaveoHDt5gqst_V9ngk8y__0000?></g></svg>