<?plantuml 1.2026.2?><svg xmlns="http://www.w3.org/2000/svg" xmlns:xlink="http://www.w3.org/1999/xlink" contentStyleType="text/css" data-diagram-type="CLASS" height="1177px" preserveAspectRatio="none" style="width:590px;height:1177px;background:#FFFFFF;" version="1.1" viewBox="0 0 590 1177" width="590px" zoomAndPan="magnify"><title>Supermarket Inventory System - Diagrama TAD de Estructuras</title><defs/><g><g class="title" data-source-line="1"><text fill="#000000" font-family="sans-serif" font-size="14" font-weight="bold" lengthAdjust="spacing" textLength="453.8516" x="61.4535" y="23.5352">Supermarket Inventory System - Diagrama TAD de Estructuras</text></g><!--class LinkedListADT--><g class="entity" data-qualified-name="LinkedListADT" data-source-line="7" id="ent0002"><rect fill="#F1F1F1" height="139.0625" rx="2.5" ry="2.5" style="stroke:#181818;stroke-width:0.5;" width="213.2158" x="48.25" y="47.8583"/><ellipse cx="86.3745" cy="68.1688" fill="#ADD1B2" rx="11" ry="11" style="stroke:#181818;stroke-width:1;"/><path d="M88.8476,74.3119 Q88.2666,74.6107 87.6274,74.7601 Q86.9882,74.9096 86.2827,74.9096 Q83.7758,74.9096 82.456,73.2577 Q81.1362,71.6058 81.1362,68.4847 Q81.1362,65.3554 82.456,63.7035 Q83.7758,62.0516 86.2827,62.0516 Q86.9882,62.0516 87.6357,62.2011 Q88.2832,62.3505 88.8476,62.6493 L88.8476,65.372 Q88.2167,64.7909 87.6232,64.5211 Q87.0297,64.2513 86.3989,64.2513 Q85.0542,64.2513 84.3693,65.318 Q83.6845,66.3846 83.6845,68.4847 Q83.6845,70.5765 84.3693,71.6432 Q85.0542,72.7098 86.3989,72.7098 Q87.0297,72.7098 87.6232,72.4401 Q88.2167,72.1703 88.8476,71.5892 Z " fill="#000000"/><text fill="#000000" font-family="sans-serif" font-size="12" font-style="italic" lengthAdjust="spacing" textLength="37.4297" x="151.7125" y="64.4598">&#171;TAD&#187;</text><text fill="#000000" font-family="sans-serif" font-size="14" lengthAdjust="spacing" textLength="129.8281" x="105.5132" y="80.5262">TAD Lista Enlazada</text><line style="stroke:#181818;stroke-width:0.5;" x1="49.25" x2="260.4658" y1="88.4794" y2="88.4794"/><line style="stroke:#181818;stroke-width:0.5;" x1="49.25" x2="260.4658" y1="96.4794" y2="96.4794"/><text fill="#000000" font-family="sans-serif" font-size="14" lengthAdjust="spacing" textLength="120.5176" x="54.25" y="114.0145">+insert(producto)</text><text fill="#000000" font-family="sans-serif" font-size="14" lengthAdjust="spacing" textLength="184.6045" x="54.25" y="130.5028">+search_by_name(nombre)</text><text fill="#000000" font-family="sans-serif" font-size="14" lengthAdjust="spacing" textLength="195.2275" x="54.25" y="146.9911">+search_by_barcode(codigo)</text><text fill="#000000" font-family="sans-serif" font-size="14" lengthAdjust="spacing" textLength="201.2158" x="54.25" y="163.4794">+remove_by_barcode(codigo)</text><text fill="#000000" font-family="sans-serif" font-size="14" lengthAdjust="spacing" textLength="132.0088" x="54.25" y="179.9677">+get_all_products()</text></g><!--class AVLADT--><g class="entity" data-qualified-name="AVLADT" data-source-line="15" id="ent0003"><rect fill="#F1F1F1" height="122.5742" rx="2.5" ry="2.5" style="stroke:#181818;stroke-width:0.5;" width="154.0234" x="77.84" y="251.2883"/><ellipse cx="120.8833" cy="271.5988" fill="#ADD1B2" rx="11" ry="11" style="stroke:#181818;stroke-width:1;"/><path d="M123.3564,277.7419 Q122.7754,278.0407 122.1362,278.1901 Q121.497,278.3396 120.7915,278.3396 Q118.2846,278.3396 116.9648,276.6877 Q115.645,275.0358 115.645,271.9147 Q115.645,268.7854 116.9648,267.1335 Q118.2846,265.4816 120.7915,265.4816 Q121.497,265.4816 122.1445,265.6311 Q122.792,265.7805 123.3564,266.0793 L123.3564,268.802 Q122.7255,268.2209 122.132,267.9511 Q121.5385,267.6813 120.9077,267.6813 Q119.5629,267.6813 118.8781,268.748 Q118.1933,269.8146 118.1933,271.9147 Q118.1933,274.0065 118.8781,275.0732 Q119.5629,276.1398 120.9077,276.1398 Q121.5385,276.1398 122.132,275.8701 Q122.7255,275.6003 123.3564,275.0192 Z " fill="#000000"/><text fill="#000000" font-family="sans-serif" font-size="12" font-style="italic" lengthAdjust="spacing" textLength="37.4297" x="152.2528" y="267.8898">&#171;TAD&#187;</text><text fill="#000000" font-family="sans-serif" font-size="14" lengthAdjust="spacing" textLength="59.7051" x="141.1151" y="283.9562">TAD AVL</text><line style="stroke:#181818;stroke-width:0.5;" x1="78.84" x2="230.8634" y1="291.9094" y2="291.9094"/><line style="stroke:#181818;stroke-width:0.5;" x1="78.84" x2="230.8634" y1="299.9094" y2="299.9094"/><text fill="#000000" font-family="sans-serif" font-size="14" lengthAdjust="spacing" textLength="120.5176" x="83.84" y="317.4445">+insert(producto)</text><text fill="#000000" font-family="sans-serif" font-size="14" lengthAdjust="spacing" textLength="117.1885" x="83.84" y="333.9328">+search(nombre)</text><text fill="#000000" font-family="sans-serif" font-size="14" lengthAdjust="spacing" textLength="123.1768" x="83.84" y="350.4211">+remove(nombre)</text><text fill="#000000" font-family="sans-serif" font-size="14" lengthAdjust="spacing" textLength="142.0234" x="83.84" y="366.9094">+in_order_traversal()</text></g><!--class HashADT--><g class="entity" data-qualified-name="HashADT" data-source-line="22" id="ent0004"><rect fill="#F1F1F1" height="122.5742" rx="2.5" ry="2.5" style="stroke:#181818;stroke-width:0.5;" width="144.0088" x="82.85" y="433.8583"/><ellipse cx="99.229" cy="454.1688" fill="#ADD1B2" rx="11" ry="11" style="stroke:#181818;stroke-width:1;"/><path d="M101.7021,460.3119 Q101.1211,460.6107 100.4819,460.7601 Q99.8428,460.9096 99.1372,460.9096 Q96.6304,460.9096 95.3105,459.2577 Q93.9907,457.6058 93.9907,454.4847 Q93.9907,451.3554 95.3105,449.7035 Q96.6304,448.0516 99.1372,448.0516 Q99.8428,448.0516 100.4902,448.2011 Q101.1377,448.3505 101.7021,448.6493 L101.7021,451.372 Q101.0713,450.7909 100.4778,450.5211 Q99.8843,450.2513 99.2534,450.2513 Q97.9087,450.2513 97.2239,451.318 Q96.5391,452.3846 96.5391,454.4847 Q96.5391,456.5765 97.2239,457.6432 Q97.9087,458.7098 99.2534,458.7098 Q99.8843,458.7098 100.4778,458.4401 Q101.0713,458.1703 101.7021,457.5892 Z " fill="#000000"/><text fill="#000000" font-family="sans-serif" font-size="12" font-style="italic" lengthAdjust="spacing" textLength="37.4297" x="149.2928" y="450.4598">&#171;TAD&#187;</text><text fill="#000000" font-family="sans-serif" font-size="14" lengthAdjust="spacing" textLength="108.9443" x="113.5354" y="466.5262">TAD Hash Table</text><line style="stroke:#181818;stroke-width:0.5;" x1="83.85" x2="225.8588" y1="474.4794" y2="474.4794"/><line style="stroke:#181818;stroke-width:0.5;" x1="83.85" x2="225.8588" y1="482.4794" y2="482.4794"/><text fill="#000000" font-family="sans-serif" font-size="14" lengthAdjust="spacing" textLength="120.5176" x="88.85" y="500.0145">+insert(producto)</text><text fill="#000000" font-family="sans-serif" font-size="14" lengthAdjust="spacing" textLength="110.4482" x="88.85" y="516.5028">+search(codigo)</text><text fill="#000000" font-family="sans-serif" font-size="14" lengthAdjust="spacing" textLength="116.4365" x="88.85" y="532.9911">+remove(codigo)</text><text fill="#000000" font-family="sans-serif" font-size="14" lengthAdjust="spacing" textLength="132.0088" x="88.85" y="549.4794">+get_all_products()</text></g><!--class BTreeADT--><g class="entity" data-qualified-name="BTreeADT" data-source-line="29" id="ent0005"><rect fill="#F1F1F1" height="139.0625" rx="2.5" ry="2.5" style="stroke:#181818;stroke-width:0.5;" width="295.7119" x="7" y="616.4283"/><ellipse cx="110.7251" cy="636.7388" fill="#ADD1B2" rx="11" ry="11" style="stroke:#181818;stroke-width:1;"/><path d="M113.1982,642.8819 Q112.6172,643.1807 111.978,643.3301 Q111.3389,643.4796 110.6333,643.4796 Q108.1265,643.4796 106.8066,641.8277 Q105.4868,640.1758 105.4868,637.0547 Q105.4868,633.9254 106.8066,632.2735 Q108.1265,630.6216 110.6333,630.6216 Q111.3389,630.6216 111.9863,630.7711 Q112.6338,630.9205 113.1982,631.2193 L113.1982,633.942 Q112.5674,633.3609 111.9739,633.0911 Q111.3804,632.8213 110.7495,632.8213 Q109.4048,632.8213 108.72,633.888 Q108.0352,634.9546 108.0352,637.0547 Q108.0352,639.1465 108.72,640.2132 Q109.4048,641.2798 110.7495,641.2798 Q111.3804,641.2798 111.9739,641.0101 Q112.5674,640.7403 113.1982,640.1592 Z " fill="#000000"/><text fill="#000000" font-family="sans-serif" font-size="12" font-style="italic" lengthAdjust="spacing" textLength="37.4297" x="152.3911" y="633.0298">&#171;TAD&#187;</text><text fill="#000000" font-family="sans-serif" font-size="14" lengthAdjust="spacing" textLength="79.7617" x="131.2251" y="649.0962">TAD B-Tree</text><line style="stroke:#181818;stroke-width:0.5;" x1="8" x2="301.7119" y1="657.0494" y2="657.0494"/><line style="stroke:#181818;stroke-width:0.5;" x1="8" x2="301.7119" y1="665.0494" y2="665.0494"/><text fill="#000000" font-family="sans-serif" font-size="14" lengthAdjust="spacing" textLength="120.5176" x="13" y="682.5845">+insert(producto)</text><text fill="#000000" font-family="sans-serif" font-size="14" lengthAdjust="spacing" textLength="101.0283" x="13" y="699.0728">+search(fecha)</text><text fill="#000000" font-family="sans-serif" font-size="14" lengthAdjust="spacing" textLength="283.7119" x="13" y="715.5611">+search_by_range(fecha_inicio, fecha_fin)</text><text fill="#000000" font-family="sans-serif" font-size="14" lengthAdjust="spacing" textLength="107.0166" x="13" y="732.0494">+remove(fecha)</text><text fill="#000000" font-family="sans-serif" font-size="14" lengthAdjust="spacing" textLength="132.0088" x="13" y="748.5377">+get_all_products()</text></g><!--class BPlusADT--><g class="entity" data-qualified-name="BPlusADT" data-source-line="37" id="ent0006"><rect fill="#F1F1F1" height="139.0625" rx="2.5" ry="2.5" style="stroke:#181818;stroke-width:0.5;" width="153.4287" x="78.14" y="815.4983"/><ellipse cx="108.534" cy="835.8088" fill="#ADD1B2" rx="11" ry="11" style="stroke:#181818;stroke-width:1;"/><path d="M111.0072,841.9519 Q110.4261,842.2507 109.787,842.4001 Q109.1478,842.5496 108.4422,842.5496 Q105.9354,842.5496 104.6156,840.8977 Q103.2958,839.2458 103.2958,836.1247 Q103.2958,832.9954 104.6156,831.3435 Q105.9354,829.6916 108.4422,829.6916 Q109.1478,829.6916 109.7953,829.8411 Q110.4427,829.9905 111.0072,830.2893 L111.0072,833.012 Q110.3763,832.4309 109.7828,832.1611 Q109.1893,831.8913 108.5585,831.8913 Q107.2137,831.8913 106.5289,832.958 Q105.8441,834.0246 105.8441,836.1247 Q105.8441,838.2165 106.5289,839.2832 Q107.2137,840.3498 108.5585,840.3498 Q109.1893,840.3498 109.7828,840.0801 Q110.3763,839.8103 111.0072,839.2292 Z " fill="#000000"/><text fill="#000000" font-family="sans-serif" font-size="12" font-style="italic" lengthAdjust="spacing" textLength="37.4297" x="150.85" y="832.0998">&#171;TAD&#187;</text><text fill="#000000" font-family="sans-serif" font-size="14" lengthAdjust="spacing" textLength="87.2197" x="125.9549" y="848.1662">TAD B+ Tree</text><line style="stroke:#181818;stroke-width:0.5;" x1="79.14" x2="230.5687" y1="856.1194" y2="856.1194"/><line style="stroke:#181818;stroke-width:0.5;" x1="79.14" x2="230.5687" y1="864.1194" y2="864.1194"/><text fill="#000000" font-family="sans-serif" font-size="14" lengthAdjust="spacing" textLength="120.5176" x="84.14" y="881.6545">+insert(producto)</text><text fill="#000000" font-family="sans-serif" font-size="14" lengthAdjust="spacing" textLength="141.4287" x="84.14" y="898.1428">+find_leaf(categoria)</text><text fill="#000000" font-family="sans-serif" font-size="14" lengthAdjust="spacing" textLength="127.2646" x="84.14" y="914.6311">+search(categoria)</text><text fill="#000000" font-family="sans-serif" font-size="14" lengthAdjust="spacing" textLength="132.125" x="84.14" y="931.1194">+remove(producto)</text><text fill="#000000" font-family="sans-serif" font-size="14" lengthAdjust="spacing" textLength="132.0088" x="84.14" y="947.6077">+get_all_products()</text></g><!--class QueueADT--><g class="entity" data-qualified-name="QueueADT" data-source-line="45" id="ent0007"><rect fill="#F1F1F1" height="155.5508" rx="2.5" ry="2.5" style="stroke:#181818;stroke-width:0.5;" width="179.1455" x="65.28" y="1014.5583"/><ellipse cx="102.4662" cy="1034.8688" fill="#ADD1B2" rx="11" ry="11" style="stroke:#181818;stroke-width:1;"/><path d="M104.9394,1041.0119 Q104.3583,1041.3107 103.7192,1041.4601 Q103.08,1041.6096 102.3744,1041.6096 Q99.8676,1041.6096 98.5478,1039.9577 Q97.2279,1038.3058 97.2279,1035.1847 Q97.2279,1032.0554 98.5478,1030.4035 Q99.8676,1028.7516 102.3744,1028.7516 Q103.08,1028.7516 103.7275,1028.9011 Q104.3749,1029.0505 104.9394,1029.3493 L104.9394,1032.072 Q104.3085,1031.4909 103.715,1031.2211 Q103.1215,1030.9513 102.4906,1030.9513 Q101.1459,1030.9513 100.4611,1032.018 Q99.7763,1033.0846 99.7763,1035.1847 Q99.7763,1037.2765 100.4611,1038.3432 Q101.1459,1039.4098 102.4906,1039.4098 Q103.1215,1039.4098 103.715,1039.1401 Q104.3085,1038.8703 104.9394,1038.2892 Z " fill="#000000"/><text fill="#000000" font-family="sans-serif" font-size="12" font-style="italic" lengthAdjust="spacing" textLength="37.4297" x="151.603" y="1031.1598">&#171;TAD&#187;</text><text fill="#000000" font-family="sans-serif" font-size="14" lengthAdjust="spacing" textLength="97.8428" x="121.3965" y="1047.2263">TAD Cola FIFO</text><line style="stroke:#181818;stroke-width:0.5;" x1="66.28" x2="243.4255" y1="1055.1794" y2="1055.1794"/><line style="stroke:#181818;stroke-width:0.5;" x1="66.28" x2="243.4255" y1="1063.1794" y2="1063.1794"/><text fill="#000000" font-family="sans-serif" font-size="14" lengthAdjust="spacing" textLength="167.1455" x="71.28" y="1080.7145">+enqueue(transferencia)</text><text fill="#000000" font-family="sans-serif" font-size="14" lengthAdjust="spacing" textLength="78.6338" x="71.28" y="1097.2028">+dequeue()</text><text fill="#000000" font-family="sans-serif" font-size="14" lengthAdjust="spacing" textLength="52.8281" x="71.28" y="1113.6911">+peek()</text><text fill="#000000" font-family="sans-serif" font-size="14" lengthAdjust="spacing" textLength="80.6504" x="71.28" y="1130.1794">+is_empty()</text><text fill="#000000" font-family="sans-serif" font-size="14" lengthAdjust="spacing" textLength="47.2432" x="71.28" y="1146.6677">+size()</text><text fill="#000000" font-family="sans-serif" font-size="14" lengthAdjust="spacing" textLength="64.8252" x="71.28" y="1163.1559">+get_all()</text></g><g class="entity" data-qualified-name="GMN8" data-source-line="55" id="ent0009"><path d="M296.22,43.4883 L296.22,113.3883 L261.9,117.3883 L296.22,121.3883 L296.22,191.2832 A0,0 0 0 0 296.22,191.2832 L509.4969,191.2832 A0,0 0 0 0 509.4969,191.2832 L509.4969,53.4883 L499.4969,43.4883 L296.22,43.4883 A0,0 0 0 0 296.22,43.4883" fill="#FEFFDD" style="stroke:#181818;stroke-width:0.5;"/><path d="M499.4969,43.4883 L499.4969,53.4883 L509.4969,53.4883 L499.4969,43.4883" fill="#FEFFDD" style="stroke:#181818;stroke-width:0.5;"/><text fill="#000000" font-family="sans-serif" font-size="13" lengthAdjust="spacing" textLength="128.3813" x="302.22" y="61.0566">Representaci&#243;n real:</text><text fill="#000000" font-family="sans-serif" font-size="13" lengthAdjust="spacing" textLength="104.1206" x="302.22" y="76.3672">- BaseLinkedList</text><text fill="#000000" font-family="sans-serif" font-size="13" lengthAdjust="spacing" textLength="142.1431" x="302.22" y="91.6777">- UnorderedLinkedList</text><text fill="#000000" font-family="sans-serif" font-size="13" lengthAdjust="spacing" textLength="127.1816" x="302.22" y="106.9883">- OrderedLinkedList</text><text fill="#000000" font-family="sans-serif" font-size="13" lengthAdjust="spacing" textLength="4.1133" x="302.22" y="122.2988">&#160;</text><text fill="#000000" font-family="sans-serif" font-size="13" lengthAdjust="spacing" textLength="114.8164" x="302.22" y="137.6094">Uso en el sistema:</text><text fill="#000000" font-family="sans-serif" font-size="13" lengthAdjust="spacing" textLength="142.7397" x="302.22" y="152.9199">- b&#250;squeda secuencial</text><text fill="#000000" font-family="sans-serif" font-size="13" lengthAdjust="spacing" textLength="191.2739" x="302.22" y="168.2305">- colecci&#243;n base de productos</text><text fill="#000000" font-family="sans-serif" font-size="13" lengthAdjust="spacing" textLength="192.2769" x="302.22" y="183.541">- benchmark de lista enlazada</text></g><g class="entity" data-qualified-name="GMN11" data-source-line="67" id="ent0012"><path d="M266.46,276.9483 L266.46,308.5683 L232.18,312.5683 L266.46,316.5683 L266.46,348.1905 A0,0 0 0 0 266.46,348.1905 L541.2456,348.1905 A0,0 0 0 0 541.2456,348.1905 L541.2456,286.9483 L531.2456,276.9483 L266.46,276.9483 A0,0 0 0 0 266.46,276.9483" fill="#FEFFDD" style="stroke:#181818;stroke-width:0.5;"/><path d="M531.2456,276.9483 L531.2456,286.9483 L541.2456,286.9483 L531.2456,276.9483" fill="#FEFFDD" style="stroke:#181818;stroke-width:0.5;"/><text fill="#000000" font-family="sans-serif" font-size="13" lengthAdjust="spacing" textLength="234.6919" x="272.46" y="294.5166">Clave principal: nombre del producto</text><text fill="#000000" font-family="sans-serif" font-size="13" lengthAdjust="spacing" textLength="4.1133" x="272.46" y="309.8272">&#160;</text><text fill="#000000" font-family="sans-serif" font-size="13" lengthAdjust="spacing" textLength="114.8164" x="272.46" y="325.1377">Uso en el sistema:</text><text fill="#000000" font-family="sans-serif" font-size="13" lengthAdjust="spacing" textLength="253.7856" x="272.46" y="340.4483">- b&#250;squeda por nombre en la aplicaci&#243;n</text></g><g class="entity" data-qualified-name="GMN14" data-source-line="74" id="ent0015"><path d="M261.74,451.8683 L261.74,491.1483 L226.94,495.1483 L261.74,499.1483 L261.74,538.421 A0,0 0 0 0 261.74,538.421 L489.9783,538.421 A0,0 0 0 0 489.9783,538.421 L489.9783,461.8683 L479.9783,451.8683 L261.74,451.8683 A0,0 0 0 0 261.74,451.8683" fill="#FEFFDD" style="stroke:#181818;stroke-width:0.5;"/><path d="M479.9783,451.8683 L479.9783,461.8683 L489.9783,461.8683 L479.9783,451.8683" fill="#FEFFDD" style="stroke:#181818;stroke-width:0.5;"/><text fill="#000000" font-family="sans-serif" font-size="13" lengthAdjust="spacing" textLength="207.2383" x="267.74" y="469.4366">Clave principal: c&#243;digo de barras</text><text fill="#000000" font-family="sans-serif" font-size="13" lengthAdjust="spacing" textLength="4.1133" x="267.74" y="484.7472">&#160;</text><text fill="#000000" font-family="sans-serif" font-size="13" lengthAdjust="spacing" textLength="114.8164" x="267.74" y="500.0577">Uso en el sistema:</text><text fill="#000000" font-family="sans-serif" font-size="13" lengthAdjust="spacing" textLength="167.1211" x="267.74" y="515.3683">- validaci&#243;n de duplicados</text><text fill="#000000" font-family="sans-serif" font-size="13" lengthAdjust="spacing" textLength="199.0371" x="267.74" y="530.6788">- b&#250;squeda exacta por barcode</text></g><g class="entity" data-qualified-name="GMN17" data-source-line="82" id="ent0018"><path d="M337.95,650.3383 L337.95,681.9683 L303.07,685.9683 L337.95,689.9683 L337.95,721.5805 A0,0 0 0 0 337.95,721.5805 L583.7586,721.5805 A0,0 0 0 0 583.7586,721.5805 L583.7586,660.3383 L573.7586,650.3383 L337.95,650.3383 A0,0 0 0 0 337.95,650.3383" fill="#FEFFDD" style="stroke:#181818;stroke-width:0.5;"/><path d="M573.7586,650.3383 L573.7586,660.3383 L583.7586,660.3383 L573.7586,650.3383" fill="#FEFFDD" style="stroke:#181818;stroke-width:0.5;"/><text fill="#000000" font-family="sans-serif" font-size="13" lengthAdjust="spacing" textLength="224.8086" x="343.95" y="667.9066">Clave principal: fecha de expiraci&#243;n</text><text fill="#000000" font-family="sans-serif" font-size="13" lengthAdjust="spacing" textLength="4.1133" x="343.95" y="683.2172">&#160;</text><text fill="#000000" font-family="sans-serif" font-size="13" lengthAdjust="spacing" textLength="114.8164" x="343.95" y="698.5277">Uso en el sistema:</text><text fill="#000000" font-family="sans-serif" font-size="13" lengthAdjust="spacing" textLength="203.9438" x="343.95" y="713.8383">- b&#250;squeda por rango de fechas</text></g><g class="entity" data-qualified-name="GMN20" data-source-line="89" id="ent0021"><path d="M266.23,818.7883 L266.23,881.0283 L231.77,885.0283 L266.23,889.0283 L266.23,951.2727 A0,0 0 0 0 266.23,951.2727 L483.4741,951.2727 A0,0 0 0 0 483.4741,951.2727 L483.4741,828.7883 L473.4741,818.7883 L266.23,818.7883 A0,0 0 0 0 266.23,818.7883" fill="#FEFFDD" style="stroke:#181818;stroke-width:0.5;"/><path d="M473.4741,818.7883 L473.4741,828.7883 L483.4741,828.7883 L473.4741,818.7883" fill="#FEFFDD" style="stroke:#181818;stroke-width:0.5;"/><text fill="#000000" font-family="sans-serif" font-size="13" lengthAdjust="spacing" textLength="159.396" x="272.23" y="836.3566">Clave principal: categor&#237;a</text><text fill="#000000" font-family="sans-serif" font-size="13" lengthAdjust="spacing" textLength="4.1133" x="272.23" y="851.6672">&#160;</text><text fill="#000000" font-family="sans-serif" font-size="13" lengthAdjust="spacing" textLength="129.0859" x="272.23" y="866.9777">Propiedad relevante:</text><text fill="#000000" font-family="sans-serif" font-size="13" lengthAdjust="spacing" textLength="171.5137" x="272.23" y="882.2883">- hojas enlazadas con next</text><text fill="#000000" font-family="sans-serif" font-size="13" lengthAdjust="spacing" textLength="4.1133" x="272.23" y="897.5988">&#160;</text><text fill="#000000" font-family="sans-serif" font-size="13" lengthAdjust="spacing" textLength="114.8164" x="272.23" y="912.9094">Uso en el sistema:</text><text fill="#000000" font-family="sans-serif" font-size="13" lengthAdjust="spacing" textLength="161.3701" x="272.23" y="928.2199">- b&#250;squeda por categor&#237;a</text><text fill="#000000" font-family="sans-serif" font-size="13" lengthAdjust="spacing" textLength="196.2441" x="272.23" y="943.5305">- recorrido secuencial de hojas</text></g><g class="entity" data-qualified-name="GMN23" data-source-line="100" id="ent0024"><path d="M279.15,1064.3683 L279.15,1088.3283 L244.9,1092.3283 L279.15,1096.3283 L279.15,1120.2999 A0,0 0 0 0 279.15,1120.2999 L574.5655,1120.2999 A0,0 0 0 0 574.5655,1120.2999 L574.5655,1074.3683 L564.5655,1064.3683 L279.15,1064.3683 A0,0 0 0 0 279.15,1064.3683" fill="#FEFFDD" style="stroke:#181818;stroke-width:0.5;"/><path d="M564.5655,1064.3683 L564.5655,1074.3683 L574.5655,1074.3683 L564.5655,1064.3683" fill="#FEFFDD" style="stroke:#181818;stroke-width:0.5;"/><text fill="#000000" font-family="sans-serif" font-size="13" lengthAdjust="spacing" textLength="114.8164" x="285.15" y="1081.9366">Uso en el sistema:</text><text fill="#000000" font-family="sans-serif" font-size="13" lengthAdjust="spacing" textLength="274.4155" x="285.15" y="1097.2472">- cola general de transferencias pendientes</text><text fill="#000000" font-family="sans-serif" font-size="13" lengthAdjust="spacing" textLength="266.8428" x="285.15" y="1112.5577">- apoyo conceptual al procesamiento FIFO</text></g><!--link LinkedListADT to AVLADT--><!--link AVLADT to HashADT--><!--link HashADT to BTreeADT--><!--link BTreeADT to BPlusADT--><!--link BPlusADT to QueueADT--><?plantuml-src bLLDRzim3BtxLn0xfUW2x3mK1Vg95IZGRabt6GQ3aHX7Yonvafmr7VQJTkfjr_onKRATEas3DfV48Yc-HucF2YfeWb5TaIlHpId0bLcG2TOjORJqWKeOmhd2mc69C3uv1qbmuOEhHQWT-YppSsKgP3S8ZTwVXE3Kf0vq9QmPgGU23xqGFqDfVobJm1IrfvwdGZ77WaPXoNmSYO2cq9HbAIcyYyZNoWU42wFn0IM-0_HiCdEIqN5oFeQZ8muxFeRV6S2XCfvS65JEIkPg3wBD4penooVBt6190sFBYQDddWb_M4a3_b55iyrHQHUqmrbGo57hl0NoWuFipmRjaw_NYIl_xq6oJwx1xrkKoQsJvFBWS47Eezw2_OH-1cESQ4heSRaF_5RvUzLyEXmxQe1FuzS-o5CICtnsAOwxWHfFhemIohw7PZLLfa_oQVFh70_XYUIjhlsRI3AUp3NXT20mK66TmerZsp2sf3OIlChhp6g4owlBcyJiSqtrzl6H-Hdj0xv-uwVao8WMKbBZIOkAQDvyAPzJMOLbi_Aioq6VJKF2sC3QKyKiW9rkQYlxGfKZpvC1XLez6fOewe_P44xHqrCa6-vCwiouxbbljcpPdRT01aY3Lt7GO4mtMVtpN814y2JgL9Pcix2QH0CyOS0uXBf3zN4N1yxY_8eEdSO4jMCY8oCX5lQyl4QEsPbc0N4onL0LbmIDoZYHNaEyohMohjl7KNnzM6abcfFQIQ1Lv3O3iNgCIekryBn9G_P5_0Lg9Tlhu5XP9r3PdCYQ6zqZ3zD4iPrUEnbrKjscb6GLGUY-Kgujx2sd4eMRAaaP_6xeLe0ld4QZgDLVpB9RPol5gIMtdwO5ca0HScP_i5Aw6_VSBGOCtOStCUpb7yQ7npgdfEsrNsIV47QIxpJwCfo8UYx8a6joRMZMGyLP5UkAuhLXPPSsyXTKXPhZCNMX88zb3B9fCFI8R3w0msyp9IMPxyEklTj7f-Vesgvx47gkzVslPtRVsTtGUbRsdEiJ-0y0?></g></svg>