<?plantuml 1.2026.2?><svg xmlns="http://www.w3.org/2000/svg" xmlns:xlink="http://www.w3.org/1999/xlink" contentStyleType="text/css" data-diagram-type="CLASS" height="805px" preserveAspectRatio="none" style="width:508px;height:805px;background:#FFFFFF;" version="1.1" viewBox="0 0 508 805" width="508px" zoomAndPan="magnify"><title>TAD B+ Tree</title><defs/><g><g class="title" data-source-line="1"><text fill="#000000" font-family="sans-serif" font-size="14" font-weight="bold" lengthAdjust="spacing" textLength="92.6816" x="200.8065" y="23.5352">TAD B+ Tree</text></g><!--class BPlusADT--><g class="entity" data-qualified-name="BPlusADT" data-source-line="6" id="ent0002"><rect fill="#F1F1F1" height="139.0625" rx="2.5" ry="2.5" style="stroke:#181818;stroke-width:0.5;" width="153.4287" x="28.46" y="44.4883"/><ellipse cx="58.854" cy="64.7988" fill="#ADD1B2" rx="11" ry="11" style="stroke:#181818;stroke-width:1;"/><path d="M61.3272,70.9419 Q60.7461,71.2407 60.107,71.3901 Q59.4678,71.5396 58.7622,71.5396 Q56.2554,71.5396 54.9356,69.8877 Q53.6158,68.2358 53.6158,65.1147 Q53.6158,61.9854 54.9356,60.3335 Q56.2554,58.6816 58.7622,58.6816 Q59.4678,58.6816 60.1153,58.8311 Q60.7627,58.9805 61.3272,59.2793 L61.3272,62.002 Q60.6963,61.4209 60.1028,61.1511 Q59.5093,60.8813 58.8785,60.8813 Q57.5337,60.8813 56.8489,61.948 Q56.1641,63.0146 56.1641,65.1147 Q56.1641,67.2065 56.8489,68.2732 Q57.5337,69.3398 58.8785,69.3398 Q59.5093,69.3398 60.1028,69.0701 Q60.6963,68.8003 61.3272,68.2192 Z " fill="#000000"/><text fill="#000000" font-family="sans-serif" font-size="12" font-style="italic" lengthAdjust="spacing" textLength="37.4297" x="101.17" y="61.0898">&#171;TAD&#187;</text><text fill="#000000" font-family="sans-serif" font-size="14" lengthAdjust="spacing" textLength="87.2197" x="76.2749" y="77.1563">TAD B+ Tree</text><line style="stroke:#181818;stroke-width:0.5;" x1="29.46" x2="180.8887" y1="85.1094" y2="85.1094"/><line style="stroke:#181818;stroke-width:0.5;" x1="29.46" x2="180.8887" y1="93.1094" y2="93.1094"/><text fill="#000000" font-family="sans-serif" font-size="14" lengthAdjust="spacing" textLength="141.4287" x="34.46" y="110.6445">+find_leaf(categoria)</text><text fill="#000000" font-family="sans-serif" font-size="14" lengthAdjust="spacing" textLength="127.2646" x="34.46" y="127.1328">+search(categoria)</text><text fill="#000000" font-family="sans-serif" font-size="14" lengthAdjust="spacing" textLength="120.5176" x="34.46" y="143.6211">+insert(producto)</text><text fill="#000000" font-family="sans-serif" font-size="14" lengthAdjust="spacing" textLength="132.125" x="34.46" y="160.1094">+remove(producto)</text><text fill="#000000" font-family="sans-serif" font-size="14" lengthAdjust="spacing" textLength="132.0088" x="34.46" y="176.5977">+get_all_products()</text></g><!--class Product--><g class="entity" data-qualified-name="Product" data-source-line="14" id="ent0003"><rect fill="#F1F1F1" height="106.0859" rx="2.5" ry="2.5" style="stroke:#181818;stroke-width:0.5;" width="108.4004" x="50.98" y="692.4083"/><ellipse cx="76.972" cy="712.7188" fill="#ADD1B2" rx="11" ry="11" style="stroke:#181818;stroke-width:1;"/><path d="M79.4452,718.8619 Q78.8641,719.1607 78.225,719.3101 Q77.5858,719.4596 76.8802,719.4596 Q74.3734,719.4596 73.0536,717.8077 Q71.7338,716.1558 71.7338,713.0347 Q71.7338,709.9054 73.0536,708.2535 Q74.3734,706.6016 76.8802,706.6016 Q77.5858,706.6016 78.2333,706.7511 Q78.8807,706.9005 79.4452,707.1993 L79.4452,709.922 Q78.8143,709.3409 78.2208,709.0711 Q77.6273,708.8013 76.9965,708.8013 Q75.6517,708.8013 74.9669,709.868 Q74.2821,710.9346 74.2821,713.0347 Q74.2821,715.1265 74.9669,716.1932 Q75.6517,717.2598 76.9965,717.2598 Q77.6273,717.2598 78.2208,716.9901 Q78.8143,716.7203 79.4452,716.1392 Z " fill="#000000"/><text fill="#000000" font-family="sans-serif" font-size="12" font-style="italic" lengthAdjust="spacing" textLength="48.8555" x="94.9738" y="709.0098">&#171;model&#187;</text><text fill="#000000" font-family="sans-serif" font-size="14" lengthAdjust="spacing" textLength="51.9736" x="93.4147" y="725.0763">Product</text><line style="stroke:#181818;stroke-width:0.5;" x1="51.98" x2="158.3804" y1="733.0294" y2="733.0294"/><text fill="#000000" font-family="sans-serif" font-size="14" lengthAdjust="spacing" textLength="96.4004" x="56.98" y="750.5645">+category: str</text><text fill="#000000" font-family="sans-serif" font-size="14" lengthAdjust="spacing" textLength="92.7432" x="56.98" y="767.0528">+barcode: str</text><text fill="#000000" font-family="sans-serif" font-size="14" lengthAdjust="spacing" textLength="75.3799" x="56.98" y="783.5411">+name: str</text><line style="stroke:#181818;stroke-width:0.5;" x1="51.98" x2="158.3804" y1="790.4942" y2="790.4942"/></g><!--class BPlusTreeNode--><g class="entity" data-qualified-name="BPlusTreeNode" data-source-line="20" id="ent0004"><rect fill="#F1F1F1" height="130.4414" rx="2.5" ry="2.5" style="stroke:#181818;stroke-width:0.5;" width="163.6963" x="23.33" y="484.9683"/><ellipse cx="51.9645" cy="500.9683" fill="#ADD1B2" rx="11" ry="11" style="stroke:#181818;stroke-width:1;"/><path d="M54.4376,507.1113 Q53.8566,507.4102 53.2174,507.5596 Q52.5782,507.709 51.8727,507.709 Q49.3658,507.709 48.046,506.0571 Q46.7262,504.4053 46.7262,501.2842 Q46.7262,498.1548 48.046,496.5029 Q49.3658,494.8511 51.8727,494.8511 Q52.5782,494.8511 53.2257,495.0005 Q53.8732,495.1499 54.4376,495.4488 L54.4376,498.1714 Q53.8068,497.5904 53.2133,497.3206 Q52.6197,497.0508 51.9889,497.0508 Q50.6442,497.0508 49.9593,498.1175 Q49.2745,499.1841 49.2745,501.2842 Q49.2745,503.376 49.9593,504.4426 Q50.6442,505.5093 51.9889,505.5093 Q52.6197,505.5093 53.2133,505.2395 Q53.8068,504.9697 54.4376,504.3887 Z " fill="#000000"/><text fill="#000000" font-family="sans-serif" font-size="14" lengthAdjust="spacing" textLength="101.3975" x="68.9944" y="506.2593">BPlusTreeNode</text><line style="stroke:#181818;stroke-width:0.5;" x1="24.33" x2="186.0263" y1="516.9683" y2="516.9683"/><text fill="#000000" font-family="sans-serif" font-size="14" lengthAdjust="spacing" textLength="70.8887" x="29.33" y="534.5034">+keys: list</text><text fill="#000000" font-family="sans-serif" font-size="14" lengthAdjust="spacing" textLength="83.1045" x="29.33" y="550.9917">+values: list</text><text fill="#000000" font-family="sans-serif" font-size="14" lengthAdjust="spacing" textLength="95.4365" x="29.33" y="567.48">+children: list</text><text fill="#000000" font-family="sans-serif" font-size="14" lengthAdjust="spacing" textLength="92.9551" x="29.33" y="583.9683">+is_leaf: bool</text><text fill="#000000" font-family="sans-serif" font-size="14" lengthAdjust="spacing" textLength="151.6963" x="29.33" y="600.4566">+next: BPlusTreeNode</text><line style="stroke:#181818;stroke-width:0.5;" x1="24.33" x2="186.0263" y1="607.4097" y2="607.4097"/></g><!--class BPlusTree--><g class="entity" data-qualified-name="BPlusTree" data-source-line="28" id="ent0005"><rect fill="#F1F1F1" height="163.418" rx="2.5" ry="2.5" style="stroke:#181818;stroke-width:0.5;" width="196.3584" x="7" y="260.5483"/><ellipse cx="68.0073" cy="276.5483" fill="#ADD1B2" rx="11" ry="11" style="stroke:#181818;stroke-width:1;"/><path d="M70.4805,282.6913 Q69.8994,282.9902 69.2603,283.1396 Q68.6211,283.289 67.9155,283.289 Q65.4087,283.289 64.0889,281.6371 Q62.769,279.9853 62.769,276.8642 Q62.769,273.7348 64.0889,272.0829 Q65.4087,270.4311 67.9155,270.4311 Q68.6211,270.4311 69.2686,270.5805 Q69.916,270.7299 70.4805,271.0287 L70.4805,273.7514 Q69.8496,273.1704 69.2561,272.9006 Q68.6626,272.6308 68.0317,272.6308 Q66.687,272.6308 66.0022,273.6975 Q65.3174,274.7641 65.3174,276.8642 Q65.3174,278.956 66.0022,280.0226 Q66.687,281.0893 68.0317,281.0893 Q68.6626,281.0893 69.2561,280.8195 Q69.8496,280.5497 70.4805,279.9687 Z " fill="#000000"/><text fill="#000000" font-family="sans-serif" font-size="14" lengthAdjust="spacing" textLength="65.8438" x="88.5073" y="281.8393">BPlusTree</text><line style="stroke:#181818;stroke-width:0.5;" x1="8" x2="202.3584" y1="292.5483" y2="292.5483"/><text fill="#000000" font-family="sans-serif" font-size="14" lengthAdjust="spacing" textLength="149.5498" x="13" y="310.0834">+root: BPlusTreeNode</text><text fill="#000000" font-family="sans-serif" font-size="14" lengthAdjust="spacing" textLength="117.4346" x="13" y="326.5717">+min_degree: int</text><line style="stroke:#181818;stroke-width:0.5;" x1="8" x2="202.3584" y1="333.5248" y2="333.5248"/><text fill="#000000" font-family="sans-serif" font-size="14" lengthAdjust="spacing" textLength="163.9258" x="13" y="351.06">+find_leaf(category: str)</text><text fill="#000000" font-family="sans-serif" font-size="14" lengthAdjust="spacing" textLength="149.7617" x="13" y="367.5483">+search(category: str)</text><text fill="#000000" font-family="sans-serif" font-size="14" lengthAdjust="spacing" textLength="172.751" x="13" y="384.0366">+insert(product: Product)</text><text fill="#000000" font-family="sans-serif" font-size="14" lengthAdjust="spacing" textLength="184.3584" x="13" y="400.5248">+remove(product: Product)</text><text fill="#000000" font-family="sans-serif" font-size="14" lengthAdjust="spacing" textLength="132.0088" x="13" y="417.0131">+get_all_products()</text></g><g class="entity" data-qualified-name="GMN10" data-source-line="44" id="ent0011"><path d="M217.07,86.0583 L217.07,110.0183 L182.07,114.0183 L217.07,118.0183 L217.07,141.9899 A0,0 0 0 0 217.07,141.9899 L501.2946,141.9899 A0,0 0 0 0 501.2946,141.9899 L501.2946,96.0583 L491.2946,86.0583 L217.07,86.0583 A0,0 0 0 0 217.07,86.0583" fill="#FEFFDD" style="stroke:#181818;stroke-width:0.5;"/><path d="M491.2946,86.0583 L491.2946,96.0583 L501.2946,96.0583 L491.2946,86.0583" fill="#FEFFDD" style="stroke:#181818;stroke-width:0.5;"/><text fill="#000000" font-family="sans-serif" font-size="13" lengthAdjust="spacing" textLength="149.0239" x="223.07" y="103.6266">Uso real en el proyecto:</text><text fill="#000000" font-family="sans-serif" font-size="13" lengthAdjust="spacing" textLength="161.3701" x="223.07" y="118.9372">- b&#250;squeda por categor&#237;a</text><text fill="#000000" font-family="sans-serif" font-size="13" lengthAdjust="spacing" textLength="263.2246" x="223.07" y="134.2477">- recorrido secuencial de hojas enlazadas</text></g><g class="entity" data-qualified-name="GMN13" data-source-line="50" id="ent0014"><path d="M238.76,291.3283 L238.76,338.2583 L203.68,342.2583 L238.76,346.2583 L238.76,393.1916 A0,0 0 0 0 238.76,393.1916 L483.5911,393.1916 A0,0 0 0 0 483.5911,393.1916 L483.5911,301.3283 L473.5911,291.3283 L238.76,291.3283 A0,0 0 0 0 238.76,291.3283" fill="#FEFFDD" style="stroke:#181818;stroke-width:0.5;"/><path d="M473.5911,291.3283 L473.5911,301.3283 L483.5911,301.3283 L473.5911,291.3283" fill="#FEFFDD" style="stroke:#181818;stroke-width:0.5;"/><text fill="#000000" font-family="sans-serif" font-size="13" lengthAdjust="spacing" textLength="98.4648" x="244.76" y="308.8966">Clave de orden:</text><text fill="#000000" font-family="sans-serif" font-size="13" lengthAdjust="spacing" textLength="107.5166" x="244.76" y="324.2072">product.category</text><text fill="#000000" font-family="sans-serif" font-size="13" lengthAdjust="spacing" textLength="4.1133" x="244.76" y="339.5177">&#160;</text><text fill="#000000" font-family="sans-serif" font-size="13" lengthAdjust="spacing" textLength="57.1543" x="244.76" y="354.8283">En hojas:</text><text fill="#000000" font-family="sans-serif" font-size="13" lengthAdjust="spacing" textLength="157.0728" x="244.76" y="370.1388">- keys guarda categor&#237;as</text><text fill="#000000" font-family="sans-serif" font-size="13" lengthAdjust="spacing" textLength="223.8311" x="244.76" y="385.4494">- values guarda listas de productos</text></g><!--link BPlusADT to BPlusTree--><g class="link" data-entity-1="ent0002" data-entity-2="ent0005" data-link-type="dependency" data-source-line="38" id="lnk6"><path codeLine="38" d="M105.18,183.8183 C105.18,207.8683 105.18,229.0983 105.18,254.0683" fill="none" id="BPlusADT-to-BPlusTree" style="stroke:#181818;stroke-width:1;stroke-dasharray:7,7;"/><polygon fill="#181818" points="105.18,260.0683,109.18,251.0683,105.18,255.0683,101.18,251.0683,105.18,260.0683" style="stroke:#181818;stroke-width:1;"/><text fill="#000000" font-family="sans-serif" font-size="13" lengthAdjust="spacing" textLength="128.6479" x="106.18" y="227.1166">implementaci&#243;n real</text></g><!--reverse link BPlusTree to BPlusTreeNode--><g class="link" data-entity-1="ent0005" data-entity-2="ent0004" data-link-type="composition" data-source-line="39" id="lnk7"><path codeLine="39" d="M105.18,436.3583 C105.18,456.3883 105.18,465.5783 105.18,484.7083" fill="none" id="BPlusTree-backto-BPlusTreeNode" style="stroke:#181818;stroke-width:1;"/><polygon fill="#181818" points="105.18,424.3583,101.18,430.3583,105.18,436.3583,109.18,430.3583,105.18,424.3583" style="stroke:#181818;stroke-width:1;"/></g><!--link BPlusTreeNode to Product--><g class="link" data-entity-1="ent0004" data-entity-2="ent0003" data-link-type="dependency" data-source-line="40" id="lnk8"><path codeLine="40" d="M105.18,615.8183 C105.18,640.6183 105.18,662.5883 105.18,686.0983" fill="none" id="BPlusTreeNode-to-Product" style="stroke:#181818;stroke-width:1;"/><polygon fill="#181818" points="105.18,692.0983,109.18,683.0983,105.18,687.0983,101.18,683.0983,105.18,692.0983" style="stroke:#181818;stroke-width:1;"/><text fill="#000000" font-family="sans-serif" font-size="13" lengthAdjust="spacing" textLength="39.603" x="106.18" y="658.9766">values</text></g><!--link BPlusTreeNode to BPlusTreeNode--><g class="link" data-entity-1="ent0004" data-entity-2="ent0004" data-link-type="dependency" data-source-line="41" id="lnk9"><path codeLine="41" d="M187.35,532.5383 C207.25,533.8883 222.03,539.7683 222.03,550.1883 C222.03,560.6183 213.2364,566.0952 193.3364,567.4352" fill="none" id="BPlusTreeNode-to-BPlusTreeNode" style="stroke:#181818;stroke-width:1;"/><polygon fill="#181818" points="187.35,567.8383,196.5984,571.2246,192.3387,567.5024,196.0609,563.2427,187.35,567.8383" style="stroke:#181818;stroke-width:1;"/><text fill="#000000" font-family="sans-serif" font-size="13" lengthAdjust="spacing" textLength="28.1455" x="228.03" y="555.2566">next</text></g><?plantuml-src RLDDRzim3BthLn0zfIiSx6mK0T9sXrs60ilE0ICnjbfPoYGvRJhi9-sqswxvOwFy5RlraOyKt-CZ5NKq19lr0zpTmCOJ2H6UjJsWnmgamH3MCNgzgoDzbSv-rsy4dqSbeKJbNhGjO8ycyElc3LoDEbu11hXxD7LOFspWzfPJgnNy4W0tUstLrX3k5n8Z5Svhl4vu8FIoV0Tg6yZ7nS4xLSle6inJvOuqnGgAMpHcsu5XSIr-zxeUMunLL4wHwNLqHASSGlG9s34_5monnQeBXbRDH6c-RrpOjdccKyZ1w11JT4HJqoYMfJRAaxqWEZJ3vx1ppZGqz1hpQUSPmfRCE_UXbk5AswsYWf4Sj8spBhTppZWzIapTpdldPboVvkRT7zQ_NAv6Wx34wc2e8XjHwlDV2vxGY4l1fonxD-BKzYnR3JlDeNLyfcIAv91y5iAwIE1rKKPm--52nO_W6Xb05iW03t8YlgrSPB0x_mi_Qr881-UXC-ty1pdbIJhljN8GIDPafUOEJ5Qw9pv_iWRVK64GP1KaubdwvWFU6pnIUkgyuciHdPFBVaT2VB5jsoGftHmKDNeMTH4KEDEwqUVIpR4GRjj_bf6M_m00?></g></svg>