<?plantuml 1.2026.2?><svg xmlns="http://www.w3.org/2000/svg" xmlns:xlink="http://www.w3.org/1999/xlink" contentStyleType="text/css" data-diagram-type="CLASS" height="740px" preserveAspectRatio="none" style="width:464px;height:740px;background:#FFFFFF;" version="1.1" viewBox="0 0 464 740" width="464px" zoomAndPan="magnify"><title>TAD AVL Tree</title><defs/><g><g class="title" data-source-line="1"><text fill="#000000" font-family="sans-serif" font-size="14" font-weight="bold" lengthAdjust="spacing" textLength="100.96" x="174.8398" y="23.5352">TAD AVL Tree</text></g><!--class AVLADT--><g class="entity" data-qualified-name="AVLADT" data-source-line="6" id="ent0002"><rect fill="#F1F1F1" height="139.0625" rx="2.5" ry="2.5" style="stroke:#181818;stroke-width:0.5;" width="154.0234" x="22.36" y="44.4883"/><ellipse cx="65.4033" cy="64.7988" fill="#ADD1B2" rx="11" ry="11" style="stroke:#181818;stroke-width:1;"/><path d="M67.8764,70.9419 Q67.2954,71.2407 66.6562,71.3901 Q66.017,71.5396 65.3115,71.5396 Q62.8046,71.5396 61.4848,69.8877 Q60.165,68.2358 60.165,65.1147 Q60.165,61.9854 61.4848,60.3335 Q62.8046,58.6816 65.3115,58.6816 Q66.017,58.6816 66.6645,58.8311 Q67.312,58.9805 67.8764,59.2793 L67.8764,62.002 Q67.2455,61.4209 66.652,61.1511 Q66.0585,60.8813 65.4277,60.8813 Q64.0829,60.8813 63.3981,61.948 Q62.7133,63.0146 62.7133,65.1147 Q62.7133,67.2065 63.3981,68.2732 Q64.0829,69.3398 65.4277,69.3398 Q66.0585,69.3398 66.652,69.0701 Q67.2455,68.8003 67.8764,68.2192 Z " fill="#000000"/><text fill="#000000" font-family="sans-serif" font-size="12" font-style="italic" lengthAdjust="spacing" textLength="37.4297" x="96.7728" y="61.0898">&#171;TAD&#187;</text><text fill="#000000" font-family="sans-serif" font-size="14" lengthAdjust="spacing" textLength="59.7051" x="85.6351" y="77.1563">TAD AVL</text><line style="stroke:#181818;stroke-width:0.5;" x1="23.36" x2="175.3834" y1="85.1094" y2="85.1094"/><line style="stroke:#181818;stroke-width:0.5;" x1="23.36" x2="175.3834" y1="93.1094" y2="93.1094"/><text fill="#000000" font-family="sans-serif" font-size="14" lengthAdjust="spacing" textLength="120.5176" x="28.36" y="110.6445">+insert(producto)</text><text fill="#000000" font-family="sans-serif" font-size="14" lengthAdjust="spacing" textLength="117.1885" x="28.36" y="127.1328">+search(nombre)</text><text fill="#000000" font-family="sans-serif" font-size="14" lengthAdjust="spacing" textLength="123.1768" x="28.36" y="143.6211">+remove(nombre)</text><text fill="#000000" font-family="sans-serif" font-size="14" lengthAdjust="spacing" textLength="142.0234" x="28.36" y="160.1094">+in_order_traversal()</text><text fill="#000000" font-family="sans-serif" font-size="14" lengthAdjust="spacing" textLength="132.0088" x="28.36" y="176.5977">+get_all_products()</text></g><!--class Product--><g class="entity" data-qualified-name="Product" data-source-line="14" id="ent0003"><rect fill="#F1F1F1" height="89.5977" rx="2.5" ry="2.5" style="stroke:#181818;stroke-width:0.5;" width="104.7432" x="47" y="643.4283"/><ellipse cx="71.3463" cy="663.7388" fill="#ADD1B2" rx="11" ry="11" style="stroke:#181818;stroke-width:1;"/><path d="M73.8194,669.8819 Q73.2384,670.1807 72.5992,670.3301 Q71.9601,670.4796 71.2545,670.4796 Q68.7477,670.4796 67.4278,668.8277 Q66.108,667.1758 66.108,664.0547 Q66.108,660.9254 67.4278,659.2735 Q68.7477,657.6216 71.2545,657.6216 Q71.9601,657.6216 72.6075,657.7711 Q73.255,657.9205 73.8194,658.2193 L73.8194,660.942 Q73.1886,660.3609 72.5951,660.0911 Q72.0016,659.8213 71.3707,659.8213 Q70.026,659.8213 69.3412,660.888 Q68.6563,661.9546 68.6563,664.0547 Q68.6563,666.1465 69.3412,667.2132 Q70.026,668.2798 71.3707,668.2798 Q72.0016,668.2798 72.5951,668.0101 Q73.1886,667.7403 73.8194,667.1592 Z " fill="#000000"/><text fill="#000000" font-family="sans-serif" font-size="12" font-style="italic" lengthAdjust="spacing" textLength="48.8555" x="88.9823" y="660.0298">&#171;model&#187;</text><text fill="#000000" font-family="sans-serif" font-size="14" lengthAdjust="spacing" textLength="51.9736" x="87.4232" y="676.0962">Product</text><line style="stroke:#181818;stroke-width:0.5;" x1="48" x2="150.7432" y1="684.0494" y2="684.0494"/><text fill="#000000" font-family="sans-serif" font-size="14" lengthAdjust="spacing" textLength="75.3799" x="53" y="701.5845">+name: str</text><text fill="#000000" font-family="sans-serif" font-size="14" lengthAdjust="spacing" textLength="92.7432" x="53" y="718.0728">+barcode: str</text><line style="stroke:#181818;stroke-width:0.5;" x1="48" x2="150.7432" y1="725.0259" y2="725.0259"/></g><!--class AVLNode--><g class="entity" data-qualified-name="AVLNode" data-source-line="19" id="ent0004"><rect fill="#F1F1F1" height="113.9531" rx="2.5" ry="2.5" style="stroke:#181818;stroke-width:0.5;" width="137.0088" x="30.87" y="468.4783"/><ellipse cx="65.3" cy="484.4783" fill="#ADD1B2" rx="11" ry="11" style="stroke:#181818;stroke-width:1;"/><path d="M67.7731,490.6213 Q67.1921,490.9202 66.5529,491.0696 Q65.9138,491.219 65.2082,491.219 Q62.7013,491.219 61.3815,489.5671 Q60.0617,487.9153 60.0617,484.7942 Q60.0617,481.6648 61.3815,480.0129 Q62.7013,478.3611 65.2082,478.3611 Q65.9138,478.3611 66.5612,478.5105 Q67.2087,478.6599 67.7731,478.9587 L67.7731,481.6814 Q67.1423,481.1004 66.5488,480.8306 Q65.9553,480.5608 65.3244,480.5608 Q63.9797,480.5608 63.2949,481.6275 Q62.61,482.6941 62.61,484.7942 Q62.61,486.886 63.2949,487.9526 Q63.9797,489.0193 65.3244,489.0193 Q65.9553,489.0193 66.5488,488.7495 Q67.1423,488.4797 67.7731,487.8987 Z " fill="#000000"/><text fill="#000000" font-family="sans-serif" font-size="14" lengthAdjust="spacing" textLength="61.8311" x="83.6178" y="489.7693">AVLNode</text><line style="stroke:#181818;stroke-width:0.5;" x1="31.87" x2="166.8788" y1="500.4783" y2="500.4783"/><text fill="#000000" font-family="sans-serif" font-size="14" lengthAdjust="spacing" textLength="125.0088" x="36.87" y="518.0134">+product: Product</text><text fill="#000000" font-family="sans-serif" font-size="14" lengthAdjust="spacing" textLength="104.0498" x="36.87" y="534.5017">+left: AVLNode</text><text fill="#000000" font-family="sans-serif" font-size="14" lengthAdjust="spacing" textLength="114.249" x="36.87" y="550.99">+right: AVLNode</text><text fill="#000000" font-family="sans-serif" font-size="14" lengthAdjust="spacing" textLength="81.1494" x="36.87" y="567.4783">+height: int</text><line style="stroke:#181818;stroke-width:0.5;" x1="31.87" x2="166.8788" y1="574.4314" y2="574.4314"/></g><!--class AVLTree--><g class="entity" data-qualified-name="AVLTree" data-source-line="26" id="ent0005"><rect fill="#F1F1F1" height="146.9297" rx="2.5" ry="2.5" style="stroke:#181818;stroke-width:0.5;" width="184.751" x="7" y="260.5483"/><ellipse cx="66.8965" cy="276.5483" fill="#ADD1B2" rx="11" ry="11" style="stroke:#181818;stroke-width:1;"/><path d="M69.3696,282.6913 Q68.7886,282.9902 68.1494,283.1396 Q67.5103,283.289 66.8047,283.289 Q64.2979,283.289 62.978,281.6371 Q61.6582,279.9853 61.6582,276.8642 Q61.6582,273.7348 62.978,272.0829 Q64.2979,270.4311 66.8047,270.4311 Q67.5103,270.4311 68.1577,270.5805 Q68.8052,270.7299 69.3696,271.0287 L69.3696,273.7514 Q68.7388,273.1704 68.1453,272.9006 Q67.5518,272.6308 66.9209,272.6308 Q65.5762,272.6308 64.8914,273.6975 Q64.2065,274.7641 64.2065,276.8642 Q64.2065,278.956 64.8914,280.0226 Q65.5762,281.0893 66.9209,281.0893 Q67.5518,281.0893 68.1453,280.8195 Q68.7388,280.5497 69.3696,279.9687 Z " fill="#000000"/><text fill="#000000" font-family="sans-serif" font-size="14" lengthAdjust="spacing" textLength="56.458" x="87.3965" y="281.8393">AVLTree</text><line style="stroke:#181818;stroke-width:0.5;" x1="8" x2="190.751" y1="292.5483" y2="292.5483"/><text fill="#000000" font-family="sans-serif" font-size="14" lengthAdjust="spacing" textLength="109.9834" x="13" y="310.0834">+root: AVLNode</text><line style="stroke:#181818;stroke-width:0.5;" x1="8" x2="190.751" y1="317.0366" y2="317.0366"/><text fill="#000000" font-family="sans-serif" font-size="14" lengthAdjust="spacing" textLength="172.751" x="13" y="334.5717">+insert(product: Product)</text><text fill="#000000" font-family="sans-serif" font-size="14" lengthAdjust="spacing" textLength="128.7412" x="13" y="351.06">+search(name: str)</text><text fill="#000000" font-family="sans-serif" font-size="14" lengthAdjust="spacing" textLength="134.7295" x="13" y="367.5483">+remove(name: str)</text><text fill="#000000" font-family="sans-serif" font-size="14" lengthAdjust="spacing" textLength="142.0234" x="13" y="384.0366">+in_order_traversal()</text><text fill="#000000" font-family="sans-serif" font-size="14" lengthAdjust="spacing" textLength="132.0088" x="13" y="400.5248">+get_all_products()</text></g><g class="entity" data-qualified-name="GMN9" data-source-line="40" id="ent0010"><path d="M211.12,86.0483 L211.12,110.0183 L176.48,114.0183 L211.12,118.0183 L211.12,141.9799 A0,0 0 0 0 211.12,141.9799 L457.6395,141.9799 A0,0 0 0 0 457.6395,141.9799 L457.6395,96.0483 L447.6395,86.0483 L211.12,86.0483 A0,0 0 0 0 211.12,86.0483" fill="#FEFFDD" style="stroke:#181818;stroke-width:0.5;"/><path d="M447.6395,86.0483 L447.6395,96.0483 L457.6395,96.0483 L447.6395,86.0483" fill="#FEFFDD" style="stroke:#181818;stroke-width:0.5;"/><text fill="#000000" font-family="sans-serif" font-size="13" lengthAdjust="spacing" textLength="149.0239" x="217.12" y="103.6166">Uso real en el proyecto:</text><text fill="#000000" font-family="sans-serif" font-size="13" lengthAdjust="spacing" textLength="212.6021" x="217.12" y="118.9272">- &#237;ndice por nombre del producto</text><text fill="#000000" font-family="sans-serif" font-size="13" lengthAdjust="spacing" textLength="225.5195" x="217.12" y="134.2377">- b&#250;squeda por nombre desde la UI</text></g><g class="entity" data-qualified-name="GMN12" data-source-line="46" id="ent0013"><path d="M226.43,313.6983 L226.43,330.0083 L191.87,334.0083 L226.43,338.0083 L226.43,354.3194 A0,0 0 0 0 226.43,354.3194 L382.3177,354.3194 A0,0 0 0 0 382.3177,354.3194 L382.3177,323.6983 L372.3177,313.6983 L226.43,313.6983 A0,0 0 0 0 226.43,313.6983" fill="#FEFFDD" style="stroke:#181818;stroke-width:0.5;"/><path d="M372.3177,313.6983 L372.3177,323.6983 L382.3177,323.6983 L372.3177,313.6983" fill="#FEFFDD" style="stroke:#181818;stroke-width:0.5;"/><text fill="#000000" font-family="sans-serif" font-size="13" lengthAdjust="spacing" textLength="98.4648" x="232.43" y="331.2666">Clave de orden:</text><text fill="#000000" font-family="sans-serif" font-size="13" lengthAdjust="spacing" textLength="134.8877" x="232.43" y="346.5772">product.name.lower()</text></g><!--link AVLADT to AVLTree--><g class="link" data-entity-1="ent0002" data-entity-2="ent0005" data-link-type="dependency" data-source-line="35" id="lnk6"><path codeLine="35" d="M99.38,183.9883 C99.38,208.3183 99.38,229.7283 99.38,254.3483" fill="none" id="AVLADT-to-AVLTree" style="stroke:#181818;stroke-width:1;stroke-dasharray:7,7;"/><polygon fill="#181818" points="99.38,260.3483,103.38,251.3483,99.38,255.3483,95.38,251.3483,99.38,260.3483" style="stroke:#181818;stroke-width:1;"/><text fill="#000000" font-family="sans-serif" font-size="13" lengthAdjust="spacing" textLength="128.6479" x="100.38" y="227.1166">implementaci&#243;n real</text></g><!--reverse link AVLTree to AVLNode--><g class="link" data-entity-1="ent0005" data-entity-2="ent0004" data-link-type="composition" data-source-line="36" id="lnk7"><path codeLine="36" d="M99.38,419.7183 C99.38,439.7483 99.38,449.1683 99.38,468.1283" fill="none" id="AVLTree-backto-AVLNode" style="stroke:#181818;stroke-width:1;"/><polygon fill="#181818" points="99.38,407.7183,95.38,413.7183,99.38,419.7183,103.38,413.7183,99.38,407.7183" style="stroke:#181818;stroke-width:1;"/></g><!--link AVLNode to Product--><g class="link" data-entity-1="ent0004" data-entity-2="ent0003" data-link-type="dependency" data-source-line="37" id="lnk8"><path codeLine="37" d="M99.38,582.6883 C99.38,602.4283 99.38,618.3083 99.38,636.9283" fill="none" id="AVLNode-to-Product" style="stroke:#181818;stroke-width:1;"/><polygon fill="#181818" points="99.38,642.9283,103.38,633.9283,99.38,637.9283,95.38,633.9283,99.38,642.9283" style="stroke:#181818;stroke-width:1;"/></g><?plantuml-src bPA_QiCm4CPtFSMHAMsnwMo2mJHBe9H2awv6jY-9g2ov9oMXBNsaJjswviLwblyGGvTEGZ_TVVVnwRpo6c6TBI5xleSr8GhXNfHf9CaQIYsToxmdLHmyhafhdjGxmkr5YTlBofwKsS5MQiVTeGTclUGCf6lFRBc6nO9XciA70BXHnY7vUKEsEfJUNhNCeQHoFpUsBWW38Qpj4I-9Chcb2Ydt98z8Jkfvu3lqkTGwxmKTqy_1p6F7s41jAzI31IDhJC1vQYy5Z-R7xZvsilC7fbrzBvqCUYtJk6NGbmN7QhUVaZrsI1a_4Mx3xeJ9scdBD9nnu2IamVmafmdyNrJz9yLnEffZptMZiKRZPQdEtmO8fHR3ytKKZQQ7eA8e7UCHndg440ZORRy5OkDia04qW1hOn1lo0YGYWlENgLI9q5Y2xikXwah2Zd15SVvnhmUivBJ6yMGjORCIQ2fen_unF2ptdUOek0FQP4mYUksuJIxMzeJ4QOmYlm00?></g></svg>