<?plantuml 1.2026.2?><svg xmlns="http://www.w3.org/2000/svg" xmlns:xlink="http://www.w3.org/1999/xlink" contentStyleType="text/css" data-diagram-type="CLASS" height="723px" preserveAspectRatio="none" style="width:1232px;height:723px;background:#FFFFFF;" version="1.1" viewBox="0 0 1232 723" width="1232px" zoomAndPan="magnify"><title>TAD Lista Enlazada</title><defs/><g><g class="title" data-source-line="1"><text fill="#000000" font-family="sans-serif" font-size="14" font-weight="bold" lengthAdjust="spacing" textLength="139.207" x="539.398" y="23.5352">TAD Lista Enlazada</text></g><!--class LinkedListADT--><g class="entity" data-qualified-name="LinkedListADT" data-source-line="6" id="ent0002"><rect fill="#F1F1F1" height="139.0625" rx="2.5" ry="2.5" style="stroke:#181818;stroke-width:0.5;" width="213.2158" x="438.85" y="44.4883"/><ellipse cx="476.9745" cy="64.7988" fill="#ADD1B2" rx="11" ry="11" style="stroke:#181818;stroke-width:1;"/><path d="M479.4476,70.9419 Q478.8666,71.2407 478.2274,71.3901 Q477.5882,71.5396 476.8827,71.5396 Q474.3758,71.5396 473.056,69.8877 Q471.7362,68.2358 471.7362,65.1147 Q471.7362,61.9854 473.056,60.3335 Q474.3758,58.6816 476.8827,58.6816 Q477.5882,58.6816 478.2357,58.8311 Q478.8832,58.9805 479.4476,59.2793 L479.4476,62.002 Q478.8167,61.4209 478.2232,61.1511 Q477.6297,60.8813 476.9989,60.8813 Q475.6542,60.8813 474.9693,61.948 Q474.2845,63.0146 474.2845,65.1147 Q474.2845,67.2065 474.9693,68.2732 Q475.6542,69.3398 476.9989,69.3398 Q477.6297,69.3398 478.2232,69.0701 Q478.8167,68.8003 479.4476,68.2192 Z " fill="#000000"/><text fill="#000000" font-family="sans-serif" font-size="12" font-style="italic" lengthAdjust="spacing" textLength="37.4297" x="542.3125" y="61.0898">&#171;TAD&#187;</text><text fill="#000000" font-family="sans-serif" font-size="14" lengthAdjust="spacing" textLength="129.8281" x="496.1132" y="77.1563">TAD Lista Enlazada</text><line style="stroke:#181818;stroke-width:0.5;" x1="439.85" x2="651.0658" y1="85.1094" y2="85.1094"/><line style="stroke:#181818;stroke-width:0.5;" x1="439.85" x2="651.0658" y1="93.1094" y2="93.1094"/><text fill="#000000" font-family="sans-serif" font-size="14" lengthAdjust="spacing" textLength="120.5176" x="444.85" y="110.6445">+insert(producto)</text><text fill="#000000" font-family="sans-serif" font-size="14" lengthAdjust="spacing" textLength="184.6045" x="444.85" y="127.1328">+search_by_name(nombre)</text><text fill="#000000" font-family="sans-serif" font-size="14" lengthAdjust="spacing" textLength="195.2275" x="444.85" y="143.6211">+search_by_barcode(codigo)</text><text fill="#000000" font-family="sans-serif" font-size="14" lengthAdjust="spacing" textLength="201.2158" x="444.85" y="160.1094">+remove_by_barcode(codigo)</text><text fill="#000000" font-family="sans-serif" font-size="14" lengthAdjust="spacing" textLength="132.0088" x="444.85" y="176.5977">+get_all_products()</text></g><!--class Product--><g class="entity" data-qualified-name="Product" data-source-line="14" id="ent0003"><rect fill="#F1F1F1" height="122.5742" rx="2.5" ry="2.5" style="stroke:#181818;stroke-width:0.5;" width="128.9561" x="516.98" y="593.9683"/><ellipse cx="552.2221" cy="614.2788" fill="#ADD1B2" rx="11" ry="11" style="stroke:#181818;stroke-width:1;"/><path d="M554.6952,620.4219 Q554.1142,620.7207 553.475,620.8701 Q552.8359,621.0196 552.1303,621.0196 Q549.6235,621.0196 548.3036,619.3677 Q546.9838,617.7158 546.9838,614.5947 Q546.9838,611.4654 548.3036,609.8135 Q549.6235,608.1616 552.1303,608.1616 Q552.8359,608.1616 553.4833,608.3111 Q554.1308,608.4605 554.6952,608.7593 L554.6952,611.482 Q554.0644,610.9009 553.4709,610.6311 Q552.8774,610.3613 552.2465,610.3613 Q550.9018,610.3613 550.217,611.428 Q549.5321,612.4946 549.5321,614.5947 Q549.5321,616.6865 550.217,617.7532 Q550.9018,618.8198 552.2465,618.8198 Q552.8774,618.8198 553.4709,618.5501 Q554.0644,618.2803 554.6952,617.6992 Z " fill="#000000"/><text fill="#000000" font-family="sans-serif" font-size="12" font-style="italic" lengthAdjust="spacing" textLength="48.8555" x="572.2794" y="610.5698">&#171;model&#187;</text><text fill="#000000" font-family="sans-serif" font-size="14" lengthAdjust="spacing" textLength="51.9736" x="570.7203" y="626.6363">Product</text><line style="stroke:#181818;stroke-width:0.5;" x1="517.98" x2="644.9361" y1="634.5894" y2="634.5894"/><text fill="#000000" font-family="sans-serif" font-size="14" lengthAdjust="spacing" textLength="75.3799" x="522.98" y="652.1245">+name: str</text><text fill="#000000" font-family="sans-serif" font-size="14" lengthAdjust="spacing" textLength="92.7432" x="522.98" y="668.6128">+barcode: str</text><text fill="#000000" font-family="sans-serif" font-size="14" lengthAdjust="spacing" textLength="96.4004" x="522.98" y="685.1011">+category: str</text><text fill="#000000" font-family="sans-serif" font-size="14" lengthAdjust="spacing" textLength="116.9561" x="522.98" y="701.5894">+expiry_date: str</text><line style="stroke:#181818;stroke-width:0.5;" x1="517.98" x2="644.9361" y1="708.5425" y2="708.5425"/></g><!--class Node--><g class="entity" data-qualified-name="Node" data-source-line="21" id="ent0004"><rect fill="#F1F1F1" height="80.9766" rx="2.5" ry="2.5" style="stroke:#181818;stroke-width:0.5;" width="113.4727" x="524.72" y="451.9883"/><ellipse cx="560.3835" cy="467.9883" fill="#ADD1B2" rx="11" ry="11" style="stroke:#181818;stroke-width:1;"/><path d="M562.8567,474.1313 Q562.2756,474.4302 561.6365,474.5796 Q560.9973,474.729 560.2917,474.729 Q557.7849,474.729 556.4651,473.0771 Q555.1452,471.4253 555.1452,468.3042 Q555.1452,465.1748 556.4651,463.5229 Q557.7849,461.8711 560.2917,461.8711 Q560.9973,461.8711 561.6448,462.0205 Q562.2922,462.1699 562.8567,462.4687 L562.8567,465.1914 Q562.2258,464.6104 561.6323,464.3406 Q561.0388,464.0708 560.4079,464.0708 Q559.0632,464.0708 558.3784,465.1375 Q557.6936,466.2041 557.6936,468.3042 Q557.6936,470.396 558.3784,471.4626 Q559.0632,472.5293 560.4079,472.5293 Q561.0388,472.5293 561.6323,472.2595 Q562.2258,471.9897 562.8567,471.4087 Z " fill="#000000"/><text fill="#000000" font-family="sans-serif" font-size="14" lengthAdjust="spacing" textLength="35.5537" x="578.9754" y="473.2793">Node</text><line style="stroke:#181818;stroke-width:0.5;" x1="525.72" x2="637.1927" y1="483.9883" y2="483.9883"/><text fill="#000000" font-family="sans-serif" font-size="14" lengthAdjust="spacing" textLength="101.4727" x="530.72" y="501.5234">+data: Product</text><text fill="#000000" font-family="sans-serif" font-size="14" lengthAdjust="spacing" textLength="85.8525" x="530.72" y="518.0117">+next: Node</text><line style="stroke:#181818;stroke-width:0.5;" x1="525.72" x2="637.1927" y1="524.9648" y2="524.9648"/></g><!--class BaseLinkedList--><g class="entity" data-qualified-name="BaseLinkedList" data-source-line="26" id="ent0005"><rect fill="#F1F1F1" height="130.4414" rx="2.5" ry="2.5" style="stroke:#181818;stroke-width:0.5;" width="287.7891" x="437.56" y="260.5483"/><ellipse cx="527.4047" cy="276.5483" fill="#A9DCDF" rx="11" ry="11" style="stroke:#181818;stroke-width:1;"/><path d="M527.268,271.8964 L526.1142,276.9682 L528.4301,276.9682 Z M525.7739,269.6552 L528.7704,269.6552 L532.1157,282.0483 L529.6669,282.0483 L528.9033,278.9853 L525.6245,278.9853 L524.8774,282.0483 L522.4287,282.0483 Z " fill="#000000"/><text fill="#000000" font-family="sans-serif" font-size="14" font-style="italic" lengthAdjust="spacing" textLength="99.5996" x="547.9047" y="281.8393">BaseLinkedList</text><line style="stroke:#181818;stroke-width:0.5;" x1="438.56" x2="724.3491" y1="292.5483" y2="292.5483"/><text fill="#000000" font-family="sans-serif" font-size="14" lengthAdjust="spacing" textLength="88.5732" x="443.56" y="310.0834">+head: Node</text><line style="stroke:#181818;stroke-width:0.5;" x1="438.56" x2="724.3491" y1="317.0366" y2="317.0366"/><text fill="#000000" font-family="sans-serif" font-size="14" lengthAdjust="spacing" textLength="196.1572" x="443.56" y="334.5717">+search_by_name(name: str)</text><text fill="#000000" font-family="sans-serif" font-size="14" lengthAdjust="spacing" textLength="230.8838" x="443.56" y="351.06">+search_by_barcode(barcode: str)</text><text fill="#000000" font-family="sans-serif" font-size="14" lengthAdjust="spacing" textLength="275.7891" x="443.56" y="367.5483">+remove_by_barcode(barcode: str): bool</text><text fill="#000000" font-family="sans-serif" font-size="14" lengthAdjust="spacing" textLength="132.0088" x="443.56" y="384.0366">+get_all_products()</text></g><!--class UnorderedLinkedList--><g class="entity" data-qualified-name="UnorderedLinkedList" data-source-line="34" id="ent0006"><rect fill="#F1F1F1" height="64.4883" rx="2.5" ry="2.5" style="stroke:#181818;stroke-width:0.5;" width="184.751" x="183.08" y="81.7683"/><ellipse cx="203.5718" cy="97.7683" fill="#ADD1B2" rx="11" ry="11" style="stroke:#181818;stroke-width:1;"/><path d="M206.045,103.9113 Q205.4639,104.2102 204.8248,104.3596 Q204.1856,104.509 203.48,104.509 Q200.9732,104.509 199.6534,102.8571 Q198.3336,101.2053 198.3336,98.0842 Q198.3336,94.9548 199.6534,93.3029 Q200.9732,91.6511 203.48,91.6511 Q204.1856,91.6511 204.8331,91.8005 Q205.4805,91.9499 206.045,92.2487 L206.045,94.9714 Q205.4141,94.3904 204.8206,94.1206 Q204.2271,93.8508 203.5963,93.8508 Q202.2515,93.8508 201.5667,94.9175 Q200.8819,95.9841 200.8819,98.0842 Q200.8819,100.176 201.5667,101.2426 Q202.2515,102.3093 203.5963,102.3093 Q204.2271,102.3093 204.8206,102.0395 Q205.4141,101.7697 206.045,101.1887 Z " fill="#000000"/><text fill="#000000" font-family="sans-serif" font-size="14" lengthAdjust="spacing" textLength="140.5469" x="218.7923" y="103.0593">UnorderedLinkedList</text><line style="stroke:#181818;stroke-width:0.5;" x1="184.08" x2="366.831" y1="113.7683" y2="113.7683"/><line style="stroke:#181818;stroke-width:0.5;" x1="184.08" x2="366.831" y1="121.7683" y2="121.7683"/><text fill="#000000" font-family="sans-serif" font-size="14" lengthAdjust="spacing" textLength="172.751" x="189.08" y="139.3034">+insert(product: Product)</text></g><!--class OrderedLinkedList--><g class="entity" data-qualified-name="OrderedLinkedList" data-source-line="38" id="ent0007"><rect fill="#F1F1F1" height="64.4883" rx="2.5" ry="2.5" style="stroke:#181818;stroke-width:0.5;" width="184.751" x="980.08" y="81.7683"/><ellipse cx="1007.8224" cy="97.7683" fill="#ADD1B2" rx="11" ry="11" style="stroke:#181818;stroke-width:1;"/><path d="M1010.2955,103.9113 Q1009.7145,104.2102 1009.0753,104.3596 Q1008.4362,104.509 1007.7306,104.509 Q1005.2238,104.509 1003.9039,102.8571 Q1002.5841,101.2053 1002.5841,98.0842 Q1002.5841,94.9548 1003.9039,93.3029 Q1005.2238,91.6511 1007.7306,91.6511 Q1008.4362,91.6511 1009.0836,91.8005 Q1009.7311,91.9499 1010.2955,92.2487 L1010.2955,94.9714 Q1009.6647,94.3904 1009.0712,94.1206 Q1008.4777,93.8508 1007.8468,93.8508 Q1006.5021,93.8508 1005.8173,94.9175 Q1005.1324,95.9841 1005.1324,98.0842 Q1005.1324,100.176 1005.8173,101.2426 Q1006.5021,102.3093 1007.8468,102.3093 Q1008.4777,102.3093 1009.0712,102.0395 Q1009.6647,101.7697 1010.2955,101.1887 Z " fill="#000000"/><text fill="#000000" font-family="sans-serif" font-size="14" lengthAdjust="spacing" textLength="124.4346" x="1024.654" y="103.0593">OrderedLinkedList</text><line style="stroke:#181818;stroke-width:0.5;" x1="981.08" x2="1163.831" y1="113.7683" y2="113.7683"/><line style="stroke:#181818;stroke-width:0.5;" x1="981.08" x2="1163.831" y1="121.7683" y2="121.7683"/><text fill="#000000" font-family="sans-serif" font-size="14" lengthAdjust="spacing" textLength="172.751" x="986.08" y="139.3034">+insert(product: Product)</text></g><g class="entity" data-qualified-name="GMN13" data-source-line="49" id="ent0014"><path d="M687.54,78.3983 L687.54,110.0183 L652.38,114.0183 L687.54,118.0183 L687.54,149.6405 A0,0 0 0 0 687.54,149.6405 L945.3838,149.6405 A0,0 0 0 0 945.3838,149.6405 L945.3838,88.3983 L935.3838,78.3983 L687.54,78.3983 A0,0 0 0 0 687.54,78.3983" fill="#FEFFDD" style="stroke:#181818;stroke-width:0.5;"/><path d="M935.3838,78.3983 L935.3838,88.3983 L945.3838,88.3983 L935.3838,78.3983" fill="#FEFFDD" style="stroke:#181818;stroke-width:0.5;"/><text fill="#000000" font-family="sans-serif" font-size="13" lengthAdjust="spacing" textLength="149.0239" x="693.54" y="95.9666">Uso real en el proyecto:</text><text fill="#000000" font-family="sans-serif" font-size="13" lengthAdjust="spacing" textLength="194.1304" x="693.54" y="111.2772">- colecci&#243;n base del inventario</text><text fill="#000000" font-family="sans-serif" font-size="13" lengthAdjust="spacing" textLength="138.7788" x="693.54" y="126.5877">- recorrido secuencial</text><text fill="#000000" font-family="sans-serif" font-size="13" lengthAdjust="spacing" textLength="236.8438" x="693.54" y="141.8983">- benchmark de b&#250;squeda secuencial</text></g><g class="entity" data-qualified-name="GMN16" data-source-line="56" id="ent0017"><path d="M6,305.4583 L6,346.0794 A0,0 0 0 0 6,346.0794 L402.9146,346.0794 A0,0 0 0 0 402.9146,346.0794 L402.9146,315.4583 L392.9146,305.4583 L215.1,305.4583 L264.83,146.4183 L207.1,305.4583 L6,305.4583 A0,0 0 0 0 6,305.4583" fill="#FEFFDD" style="stroke:#181818;stroke-width:0.5;"/><path d="M392.9146,305.4583 L392.9146,315.4583 L402.9146,315.4583 L392.9146,305.4583" fill="#FEFFDD" style="stroke:#181818;stroke-width:0.5;"/><text fill="#000000" font-family="sans-serif" font-size="13" lengthAdjust="spacing" textLength="103.835" x="12" y="323.0266">Inserta al frente.</text><text fill="#000000" font-family="sans-serif" font-size="13" lengthAdjust="spacing" textLength="375.9146" x="12" y="338.3372">Es la lista base usada por CatalogService.get_all_products().</text></g><g class="entity" data-qualified-name="GMN19" data-source-line="61" id="ent0020"><path d="M919.92,313.1083 L919.92,338.4188 A0,0 0 0 0 919.92,338.4188 L1225.003,338.4188 A0,0 0 0 0 1225.003,338.4188 L1225.003,323.1083 L1215.003,313.1083 L1076.46,313.1083 L1072.46,146.4183 L1068.46,313.1083 L919.92,313.1083 A0,0 0 0 0 919.92,313.1083" fill="#FEFFDD" style="stroke:#181818;stroke-width:0.5;"/><path d="M1215.003,313.1083 L1215.003,323.1083 L1225.003,323.1083 L1215.003,313.1083" fill="#FEFFDD" style="stroke:#181818;stroke-width:0.5;"/><text fill="#000000" font-family="sans-serif" font-size="13" lengthAdjust="spacing" textLength="284.083" x="925.92" y="330.6766">Inserta ordenando por product.name.lower().</text></g><!--link LinkedListADT to BaseLinkedList--><g class="link" data-entity-1="ent0002" data-entity-2="ent0005" data-link-type="dependency" data-source-line="42" id="lnk8"><path codeLine="42" d="M557.29,183.9883 C561.52,208.5783 565.2335,230.265 569.3935,254.465" fill="none" id="LinkedListADT-to-BaseLinkedList" style="stroke:#181818;stroke-width:1;stroke-dasharray:7,7;"/><polygon fill="#181818" points="570.41,260.3783,572.8274,250.8307,569.5629,255.4506,564.9431,252.186,570.41,260.3783" style="stroke:#181818;stroke-width:1;"/><text fill="#000000" font-family="sans-serif" font-size="13" lengthAdjust="spacing" textLength="128.6479" x="565.54" y="227.1166">implementaci&#243;n real</text></g><!--reverse link BaseLinkedList to Node--><g class="link" data-entity-1="ent0005" data-entity-2="ent0004" data-link-type="composition" data-source-line="43" id="lnk9"><path codeLine="43" d="M581.46,403.3883 C581.46,423.7583 581.46,433.6483 581.46,451.7483" fill="none" id="BaseLinkedList-backto-Node" style="stroke:#181818;stroke-width:1;"/><polygon fill="#181818" points="581.46,391.3883,577.46,397.3883,581.46,403.3883,585.46,397.3883,581.46,391.3883" style="stroke:#181818;stroke-width:1;"/></g><!--link Node to Product--><g class="link" data-entity-1="ent0004" data-entity-2="ent0003" data-link-type="dependency" data-source-line="44" id="lnk10"><path codeLine="44" d="M581.46,533.2183 C581.46,551.4483 581.46,567.4483 581.46,587.6783" fill="none" id="Node-to-Product" style="stroke:#181818;stroke-width:1;"/><polygon fill="#181818" points="581.46,593.6783,585.46,584.6783,581.46,588.6783,577.46,584.6783,581.46,593.6783" style="stroke:#181818;stroke-width:1;"/></g><!--link UnorderedLinkedList to BaseLinkedList--><g class="link" data-entity-1="ent0006" data-entity-2="ent0005" data-link-type="extension" data-source-line="45" id="lnk11"><path codeLine="45" d="M321.6,146.6483 C365.26,176.5683 417.264,212.21 472.224,249.89" fill="none" id="UnorderedLinkedList-to-BaseLinkedList" style="stroke:#181818;stroke-width:1;"/><polygon fill="none" points="487.07,260.0683,475.6168,244.9414,468.8313,254.8387,487.07,260.0683" style="stroke:#181818;stroke-width:1;"/></g><!--link OrderedLinkedList to BaseLinkedList--><g class="link" data-entity-1="ent0007" data-entity-2="ent0005" data-link-type="extension" data-source-line="46" id="lnk12"><path codeLine="46" d="M1026.28,146.6883 C1007.05,159.0983 984.17,172.8983 962.46,183.5483 C886.46,220.8283 815.0135,248.3401 742.4735,273.2601" fill="none" id="OrderedLinkedList-to-BaseLinkedList" style="stroke:#181818;stroke-width:1;"/><polygon fill="none" points="725.45,279.1083,744.4229,278.9346,740.5241,267.5856,725.45,279.1083" style="stroke:#181818;stroke-width:1;"/></g><?plantuml-src bLF1Rjim3BthAuYUqWqsTZQA0DdQGu5X6T3s7D0oumYHnKnIqgRRlcgtNVjZe-p4ZTC4sow6JBx7zqXHqKHBS3-vXiycH8GRP_4PArGgB8rReSS6jCKG9Z5wKwuZtMfsT-QPuCC192omuaVZQfYZ3QHKou6BjuKl08E4t9Agb9XStyFLbS36O_Yk0DuR5yZ7qSfpjTQHBrCi47gzc9NRcSE6HewRqjDHffG3LpIIZwaxcgU6DtGcMLESeRMpdL0ONQgVUzjVkvWOQuHbzzQIU04X-lIpAzd_QunKiz_s0NfQ6R-TLHBlOdtvByBhAaeIYxrSAq5FiMW12Owby52CTBoF6EXrSbs51M6r8vmOrDxmcLaTzd1cOWD80IMp_Tlq7XpxYdnoEVGwlDg-xmFgzF-9mrNAy_7nc0empSfIGowYDY-_77X2guvGxxAics9xELasxc_bL3jPzkDOHqt_2QKSHm9lwaK4dWyVWde8t9e3Sa0MfDyjoHieL0QQBUdEVYaLGTOIZDkafhnX0NZIxBsf60BfDJbjfCaCIZaj6lHBOK3vyZjyMrE5XnXo5IHJEsibnyXDydQYSNNRtWI2U9nx4QTStGIm2BPzvAsrTP1d3Ylsy4dMst9zHtvZDELlboO_hpuzgvrSENJIQTBO5SlJhkUM7yaFolu1?></g></svg>