<?plantuml 1.2026.2?><svg xmlns="http://www.w3.org/2000/svg" xmlns:xlink="http://www.w3.org/1999/xlink" contentStyleType="text/css" data-diagram-type="CLASS" height="647px" preserveAspectRatio="none" style="width:539px;height:647px;background:#FFFFFF;" version="1.1" viewBox="0 0 539 647" width="539px" zoomAndPan="magnify"><title>TAD Cola FIFO de Transferencias</title><defs/><g><g class="title" data-source-line="1"><text fill="#000000" font-family="sans-serif" font-size="14" font-weight="bold" lengthAdjust="spacing" textLength="238.2324" x="143.5612" y="23.5352">TAD Cola FIFO de Transferencias</text></g><!--class QueueADT--><g class="entity" data-qualified-name="QueueADT" data-source-line="6" id="ent0002"><rect fill="#F1F1F1" height="155.5508" rx="2.5" ry="2.5" style="stroke:#181818;stroke-width:0.5;" width="179.1455" x="18.38" y="44.4883"/><ellipse cx="55.5662" cy="64.7988" fill="#ADD1B2" rx="11" ry="11" style="stroke:#181818;stroke-width:1;"/><path d="M58.0394,70.9419 Q57.4583,71.2407 56.8192,71.3901 Q56.18,71.5396 55.4744,71.5396 Q52.9676,71.5396 51.6478,69.8877 Q50.3279,68.2358 50.3279,65.1147 Q50.3279,61.9854 51.6478,60.3335 Q52.9676,58.6816 55.4744,58.6816 Q56.18,58.6816 56.8275,58.8311 Q57.4749,58.9805 58.0394,59.2793 L58.0394,62.002 Q57.4085,61.4209 56.815,61.1511 Q56.2215,60.8813 55.5906,60.8813 Q54.2459,60.8813 53.5611,61.948 Q52.8763,63.0146 52.8763,65.1147 Q52.8763,67.2065 53.5611,68.2732 Q54.2459,69.3398 55.5906,69.3398 Q56.2215,69.3398 56.815,69.0701 Q57.4085,68.8003 58.0394,68.2192 Z " fill="#000000"/><text fill="#000000" font-family="sans-serif" font-size="12" font-style="italic" lengthAdjust="spacing" textLength="37.4297" x="104.703" y="61.0898">&#171;TAD&#187;</text><text fill="#000000" font-family="sans-serif" font-size="14" lengthAdjust="spacing" textLength="97.8428" x="74.4965" y="77.1563">TAD Cola FIFO</text><line style="stroke:#181818;stroke-width:0.5;" x1="19.38" x2="196.5255" y1="85.1094" y2="85.1094"/><line style="stroke:#181818;stroke-width:0.5;" x1="19.38" x2="196.5255" y1="93.1094" y2="93.1094"/><text fill="#000000" font-family="sans-serif" font-size="14" lengthAdjust="spacing" textLength="167.1455" x="24.38" y="110.6445">+enqueue(transferencia)</text><text fill="#000000" font-family="sans-serif" font-size="14" lengthAdjust="spacing" textLength="78.6338" x="24.38" y="127.1328">+dequeue()</text><text fill="#000000" font-family="sans-serif" font-size="14" lengthAdjust="spacing" textLength="52.8281" x="24.38" y="143.6211">+peek()</text><text fill="#000000" font-family="sans-serif" font-size="14" lengthAdjust="spacing" textLength="80.6504" x="24.38" y="160.1094">+is_empty()</text><text fill="#000000" font-family="sans-serif" font-size="14" lengthAdjust="spacing" textLength="47.2432" x="24.38" y="176.5977">+size()</text><text fill="#000000" font-family="sans-serif" font-size="14" lengthAdjust="spacing" textLength="64.8252" x="24.38" y="193.0859">+get_all()</text></g><!--class TransferRequest--><g class="entity" data-qualified-name="TransferRequest" data-source-line="15" id="ent0003"><rect fill="#F1F1F1" height="139.0625" rx="2.5" ry="2.5" style="stroke:#181818;stroke-width:0.5;" width="145.8408" x="35.03" y="501.4583"/><ellipse cx="51.246" cy="521.7688" fill="#ADD1B2" rx="11" ry="11" style="stroke:#181818;stroke-width:1;"/><path d="M53.7191,527.9119 Q53.1381,528.2107 52.4989,528.3601 Q51.8597,528.5096 51.1542,528.5096 Q48.6473,528.5096 47.3275,526.8577 Q46.0077,525.2058 46.0077,522.0847 Q46.0077,518.9554 47.3275,517.3035 Q48.6473,515.6516 51.1542,515.6516 Q51.8597,515.6516 52.5072,515.8011 Q53.1547,515.9505 53.7191,516.2493 L53.7191,518.972 Q53.0883,518.3909 52.4947,518.1211 Q51.9012,517.8513 51.2704,517.8513 Q49.9257,517.8513 49.2408,518.918 Q48.556,519.9846 48.556,522.0847 Q48.556,524.1765 49.2408,525.2432 Q49.9257,526.3098 51.2704,526.3098 Q51.9012,526.3098 52.4947,526.0401 Q53.0883,525.7703 53.7191,525.1892 Z " fill="#000000"/><text fill="#000000" font-family="sans-serif" font-size="12" font-style="italic" lengthAdjust="spacing" textLength="48.8555" x="96.6578" y="518.0598">&#171;model&#187;</text><text fill="#000000" font-family="sans-serif" font-size="14" lengthAdjust="spacing" textLength="111.1387" x="65.5162" y="534.1263">TransferRequest</text><line style="stroke:#181818;stroke-width:0.5;" x1="36.03" x2="179.8708" y1="542.0794" y2="542.0794"/><text fill="#000000" font-family="sans-serif" font-size="14" lengthAdjust="spacing" textLength="102.9424" x="41.03" y="559.6145">+source_id: int</text><text fill="#000000" font-family="sans-serif" font-size="14" lengthAdjust="spacing" textLength="133.8408" x="41.03" y="576.1028">+destination_id: int</text><text fill="#000000" font-family="sans-serif" font-size="14" lengthAdjust="spacing" textLength="92.7432" x="41.03" y="592.5911">+barcode: str</text><text fill="#000000" font-family="sans-serif" font-size="14" lengthAdjust="spacing" textLength="93.7139" x="41.03" y="609.0794">+quantity: int</text><text fill="#000000" font-family="sans-serif" font-size="14" lengthAdjust="spacing" textLength="79.2559" x="41.03" y="625.5677">+status: str</text><line style="stroke:#181818;stroke-width:0.5;" x1="36.03" x2="179.8708" y1="632.5208" y2="632.5208"/></g><!--class TransferQueue--><g class="entity" data-qualified-name="TransferQueue" data-source-line="23" id="ent0004"><rect fill="#F1F1F1" height="163.418" rx="2.5" ry="2.5" style="stroke:#181818;stroke-width:0.5;" width="201.9092" x="7" y="277.0383"/><ellipse cx="53.3716" cy="293.0383" fill="#ADD1B2" rx="11" ry="11" style="stroke:#181818;stroke-width:1;"/><path d="M55.8447,299.1813 Q55.2637,299.4802 54.6245,299.6296 Q53.9854,299.779 53.2798,299.779 Q50.7729,299.779 49.4531,298.1271 Q48.1333,296.4753 48.1333,293.3542 Q48.1333,290.2248 49.4531,288.5729 Q50.7729,286.9211 53.2798,286.9211 Q53.9854,286.9211 54.6328,287.0705 Q55.2803,287.2199 55.8447,287.5187 L55.8447,290.2414 Q55.2139,289.6604 54.6204,289.3906 Q54.0269,289.1208 53.396,289.1208 Q52.0513,289.1208 51.3665,290.1875 Q50.6816,291.2541 50.6816,293.3542 Q50.6816,295.446 51.3665,296.5126 Q52.0513,297.5793 53.396,297.5793 Q54.0269,297.5793 54.6204,297.3095 Q55.2139,297.0397 55.8447,296.4587 Z " fill="#000000"/><text fill="#000000" font-family="sans-serif" font-size="14" lengthAdjust="spacing" textLength="100.666" x="73.8716" y="298.3293">TransferQueue</text><line style="stroke:#181818;stroke-width:0.5;" x1="8" x2="207.9092" y1="309.0383" y2="309.0383"/><text fill="#000000" font-family="sans-serif" font-size="14" lengthAdjust="spacing" textLength="77.7451" x="13" y="326.5734">+items: list</text><line style="stroke:#181818;stroke-width:0.5;" x1="8" x2="207.9092" y1="333.5266" y2="333.5266"/><text fill="#000000" font-family="sans-serif" font-size="14" lengthAdjust="spacing" textLength="189.9092" x="13" y="351.0617">+enqueue(transfer_request)</text><text fill="#000000" font-family="sans-serif" font-size="14" lengthAdjust="spacing" textLength="78.6338" x="13" y="367.55">+dequeue()</text><text fill="#000000" font-family="sans-serif" font-size="14" lengthAdjust="spacing" textLength="52.8281" x="13" y="384.0383">+peek()</text><text fill="#000000" font-family="sans-serif" font-size="14" lengthAdjust="spacing" textLength="80.6504" x="13" y="400.5266">+is_empty()</text><text fill="#000000" font-family="sans-serif" font-size="14" lengthAdjust="spacing" textLength="47.2432" x="13" y="417.0148">+size()</text><text fill="#000000" font-family="sans-serif" font-size="14" lengthAdjust="spacing" textLength="64.8252" x="13" y="433.5031">+get_all()</text></g><g class="entity" data-qualified-name="GMN7" data-source-line="37" id="ent0008"><path d="M232.25,94.2983 L232.25,118.2583 L198,122.2583 L232.25,126.2583 L232.25,150.2299 A0,0 0 0 0 232.25,150.2299 L527.6655,150.2299 A0,0 0 0 0 527.6655,150.2299 L527.6655,104.2983 L517.6655,94.2983 L232.25,94.2983 A0,0 0 0 0 232.25,94.2983" fill="#FEFFDD" style="stroke:#181818;stroke-width:0.5;"/><path d="M517.6655,94.2983 L517.6655,104.2983 L527.6655,104.2983 L517.6655,94.2983" fill="#FEFFDD" style="stroke:#181818;stroke-width:0.5;"/><text fill="#000000" font-family="sans-serif" font-size="13" lengthAdjust="spacing" textLength="149.0239" x="238.25" y="111.8666">Uso real en el proyecto:</text><text fill="#000000" font-family="sans-serif" font-size="13" lengthAdjust="spacing" textLength="274.4155" x="238.25" y="127.1772">- cola general de transferencias pendientes</text><text fill="#000000" font-family="sans-serif" font-size="13" lengthAdjust="spacing" textLength="205.207" x="238.25" y="142.4877">- apoyo al flujo FIFO del sistema</text></g><g class="entity" data-qualified-name="GMN10" data-source-line="43" id="ent0011"><path d="M243.56,330.7783 L243.56,354.7483 L209.4,358.7483 L243.56,362.7483 L243.56,386.7099 A0,0 0 0 0 243.56,386.7099 L532.3549,386.7099 A0,0 0 0 0 532.3549,386.7099 L532.3549,340.7783 L522.3549,330.7783 L243.56,330.7783 A0,0 0 0 0 243.56,330.7783" fill="#FEFFDD" style="stroke:#181818;stroke-width:0.5;"/><path d="M522.3549,330.7783 L522.3549,340.7783 L532.3549,340.7783 L522.3549,330.7783" fill="#FEFFDD" style="stroke:#181818;stroke-width:0.5;"/><text fill="#000000" font-family="sans-serif" font-size="13" lengthAdjust="spacing" textLength="267.7949" x="249.56" y="348.3466">Implementaci&#243;n simple sobre lista Python:</text><text fill="#000000" font-family="sans-serif" font-size="13" lengthAdjust="spacing" textLength="112.4551" x="249.56" y="363.6572">- enqueue al final</text><text fill="#000000" font-family="sans-serif" font-size="13" lengthAdjust="spacing" textLength="191.9722" x="249.56" y="378.9677">- dequeue desde la posici&#243;n 0</text></g><!--link QueueADT to TransferQueue--><g class="link" data-entity-1="ent0002" data-entity-2="ent0004" data-link-type="dependency" data-source-line="33" id="lnk5"><path codeLine="33" d="M107.95,200.3683 C107.95,224.7983 107.95,245.8683 107.95,270.5683" fill="none" id="QueueADT-to-TransferQueue" style="stroke:#181818;stroke-width:1;stroke-dasharray:7,7;"/><polygon fill="#181818" points="107.95,276.5683,111.95,267.5683,107.95,271.5683,103.95,267.5683,107.95,276.5683" style="stroke:#181818;stroke-width:1;"/><text fill="#000000" font-family="sans-serif" font-size="13" lengthAdjust="spacing" textLength="128.6479" x="108.95" y="243.6066">implementaci&#243;n real</text></g><!--link TransferQueue to TransferRequest--><g class="link" data-entity-1="ent0004" data-entity-2="ent0003" data-link-type="dependency" data-source-line="34" id="lnk6"><path codeLine="34" d="M107.95,440.7283 C107.95,460.6283 107.95,475.7383 107.95,495.0083" fill="none" id="TransferQueue-to-TransferRequest" style="stroke:#181818;stroke-width:1;"/><polygon fill="#181818" points="107.95,501.0083,111.95,492.0083,107.95,496.0083,103.95,492.0083,107.95,501.0083" style="stroke:#181818;stroke-width:1;"/></g><?plantuml-src fP9DRjj038NtSmeYgnI5WwoDm82H881N-UtQe2NQPZFYA4CAXLhqL3r2BrPA4pksarrN6f9FypwIOsoHu7b-0zSf8jmkRk-WzaH6qJLbaefHGz0NbXOpDb15L9sRPLvrHeigoHF_9BWyaEWMw_I3PGDhZ4eXZF_0sP7B6Q32GqSTpM-UuUhAYxCP_0e0NqbUX_ov7K9y6IerbSeOj4GlvSIwfAQrlaJgFEMq8LjYZ1xyta7i6diSRb9puoRL57VMchfSqPBhAR1OiLHZGUCaX-aLvif_d89Q7kBN3iNO-hr03QtJKl_WFlPT7DceSLbajSzwN-O2-j_jxqTzSJ4xuN3cfetKa1XM_FUFG2QCuLWqcSnEXnU292F8lDaQfFL-c-6Rfl4A806AqERKKsLf6YPG3VlVa53siZ-qenqhj2GrEmUfQx5DVGBNhMFtFUtUPWJrML63mRKm49no7867nKblEZOBcbQPnh4ZtFUsJJBWlOr_DFMjHq-z3Ts_whnEtoRbSjNbEy8_?></g></svg>