<?plantuml 1.2026.2?><svg xmlns="http://www.w3.org/2000/svg" xmlns:xlink="http://www.w3.org/1999/xlink" contentStyleType="text/css" data-diagram-type="CLASS" height="548px" preserveAspectRatio="none" style="width:508px;height:548px;background:#FFFFFF;" version="1.1" viewBox="0 0 508 548" width="508px" zoomAndPan="magnify"><title>TAD Hash Table</title><defs/><g><g class="title" data-source-line="1"><text fill="#000000" font-family="sans-serif" font-size="14" font-weight="bold" lengthAdjust="spacing" textLength="116.4844" x="189.028" y="23.5352">TAD Hash Table</text></g><!--class HashADT--><g class="entity" data-qualified-name="HashADT" data-source-line="6" id="ent0002"><rect fill="#F1F1F1" height="122.5742" rx="2.5" ry="2.5" style="stroke:#181818;stroke-width:0.5;" width="144.0088" x="46.83" y="44.4883"/><ellipse cx="63.209" cy="64.7988" fill="#ADD1B2" rx="11" ry="11" style="stroke:#181818;stroke-width:1;"/><path d="M65.6821,70.9419 Q65.1011,71.2407 64.4619,71.3901 Q63.8228,71.5396 63.1172,71.5396 Q60.6104,71.5396 59.2905,69.8877 Q57.9707,68.2358 57.9707,65.1147 Q57.9707,61.9854 59.2905,60.3335 Q60.6104,58.6816 63.1172,58.6816 Q63.8228,58.6816 64.4702,58.8311 Q65.1177,58.9805 65.6821,59.2793 L65.6821,62.002 Q65.0513,61.4209 64.4578,61.1511 Q63.8643,60.8813 63.2334,60.8813 Q61.8887,60.8813 61.2039,61.948 Q60.5191,63.0146 60.5191,65.1147 Q60.5191,67.2065 61.2039,68.2732 Q61.8887,69.3398 63.2334,69.3398 Q63.8643,69.3398 64.4578,69.0701 Q65.0513,68.8003 65.6821,68.2192 Z " fill="#000000"/><text fill="#000000" font-family="sans-serif" font-size="12" font-style="italic" lengthAdjust="spacing" textLength="37.4297" x="113.2728" y="61.0898">&#171;TAD&#187;</text><text fill="#000000" font-family="sans-serif" font-size="14" lengthAdjust="spacing" textLength="108.9443" x="77.5154" y="77.1563">TAD Hash Table</text><line style="stroke:#181818;stroke-width:0.5;" x1="47.83" x2="189.8388" y1="85.1094" y2="85.1094"/><line style="stroke:#181818;stroke-width:0.5;" x1="47.83" x2="189.8388" y1="93.1094" y2="93.1094"/><text fill="#000000" font-family="sans-serif" font-size="14" lengthAdjust="spacing" textLength="120.5176" x="52.83" y="110.6445">+insert(producto)</text><text fill="#000000" font-family="sans-serif" font-size="14" lengthAdjust="spacing" textLength="110.4482" x="52.83" y="127.1328">+search(codigo)</text><text fill="#000000" font-family="sans-serif" font-size="14" lengthAdjust="spacing" textLength="116.4365" x="52.83" y="143.6211">+remove(codigo)</text><text fill="#000000" font-family="sans-serif" font-size="14" lengthAdjust="spacing" textLength="132.0088" x="52.83" y="160.1094">+get_all_products()</text></g><!--class Product--><g class="entity" data-qualified-name="Product" data-source-line="13" id="ent0003"><rect fill="#F1F1F1" height="89.5977" rx="2.5" ry="2.5" style="stroke:#181818;stroke-width:0.5;" width="104.7432" x="66.46" y="451.9883"/><ellipse cx="90.8063" cy="472.2988" fill="#ADD1B2" rx="11" ry="11" style="stroke:#181818;stroke-width:1;"/><path d="M93.2794,478.4419 Q92.6984,478.7407 92.0592,478.8901 Q91.4201,479.0396 90.7145,479.0396 Q88.2077,479.0396 86.8878,477.3877 Q85.568,475.7358 85.568,472.6147 Q85.568,469.4854 86.8878,467.8335 Q88.2077,466.1816 90.7145,466.1816 Q91.4201,466.1816 92.0675,466.3311 Q92.715,466.4805 93.2794,466.7793 L93.2794,469.502 Q92.6486,468.9209 92.0551,468.6511 Q91.4616,468.3813 90.8307,468.3813 Q89.486,468.3813 88.8012,469.448 Q88.1163,470.5146 88.1163,472.6147 Q88.1163,474.7065 88.8012,475.7732 Q89.486,476.8398 90.8307,476.8398 Q91.4616,476.8398 92.0551,476.5701 Q92.6486,476.3003 93.2794,475.7192 Z " fill="#000000"/><text fill="#000000" font-family="sans-serif" font-size="12" font-style="italic" lengthAdjust="spacing" textLength="48.8555" x="108.4423" y="468.5898">&#171;model&#187;</text><text fill="#000000" font-family="sans-serif" font-size="14" lengthAdjust="spacing" textLength="51.9736" x="106.8832" y="484.6563">Product</text><line style="stroke:#181818;stroke-width:0.5;" x1="67.46" x2="170.2032" y1="492.6094" y2="492.6094"/><text fill="#000000" font-family="sans-serif" font-size="14" lengthAdjust="spacing" textLength="92.7432" x="72.46" y="510.1445">+barcode: str</text><text fill="#000000" font-family="sans-serif" font-size="14" lengthAdjust="spacing" textLength="75.3799" x="72.46" y="526.6328">+name: str</text><line style="stroke:#181818;stroke-width:0.5;" x1="67.46" x2="170.2032" y1="533.5859" y2="533.5859"/></g><!--class HashTable--><g class="entity" data-qualified-name="HashTable" data-source-line="18" id="ent0004"><rect fill="#F1F1F1" height="146.9297" rx="2.5" ry="2.5" style="stroke:#181818;stroke-width:0.5;" width="223.668" x="7" y="244.0583"/><ellipse cx="79.0405" cy="260.0583" fill="#ADD1B2" rx="11" ry="11" style="stroke:#181818;stroke-width:1;"/><path d="M81.5137,266.2013 Q80.9326,266.5002 80.2935,266.6496 Q79.6543,266.799 78.9487,266.799 Q76.4419,266.799 75.1221,265.1471 Q73.8022,263.4953 73.8022,260.3742 Q73.8022,257.2448 75.1221,255.5929 Q76.4419,253.9411 78.9487,253.9411 Q79.6543,253.9411 80.3018,254.0905 Q80.9492,254.2399 81.5137,254.5388 L81.5137,257.2614 Q80.8828,256.6804 80.2893,256.4106 Q79.6958,256.1408 79.0649,256.1408 Q77.7202,256.1408 77.0354,257.2075 Q76.3506,258.2741 76.3506,260.3742 Q76.3506,262.466 77.0354,263.5326 Q77.7202,264.5993 79.0649,264.5993 Q79.6958,264.5993 80.2893,264.3295 Q80.8828,264.0597 81.5137,263.4787 Z " fill="#000000"/><text fill="#000000" font-family="sans-serif" font-size="14" lengthAdjust="spacing" textLength="71.0869" x="99.5405" y="265.3493">HashTable</text><line style="stroke:#181818;stroke-width:0.5;" x1="8" x2="229.668" y1="276.0583" y2="276.0583"/><text fill="#000000" font-family="sans-serif" font-size="14" lengthAdjust="spacing" textLength="93.1738" x="13" y="293.5934">+capacity: int</text><text fill="#000000" font-family="sans-serif" font-size="14" lengthAdjust="spacing" textLength="74.0811" x="13" y="310.0817">+table: list</text><line style="stroke:#181818;stroke-width:0.5;" x1="8" x2="229.668" y1="317.0348" y2="317.0348"/><text fill="#000000" font-family="sans-serif" font-size="14" lengthAdjust="spacing" textLength="211.668" x="13" y="334.57">+insert(product: Product): bool</text><text fill="#000000" font-family="sans-serif" font-size="14" lengthAdjust="spacing" textLength="146.1045" x="13" y="351.0583">+search(barcode: str)</text><text fill="#000000" font-family="sans-serif" font-size="14" lengthAdjust="spacing" textLength="191.0098" x="13" y="367.5466">+remove(barcode: str): bool</text><text fill="#000000" font-family="sans-serif" font-size="14" lengthAdjust="spacing" textLength="132.0088" x="13" y="384.0348">+get_all_products()</text></g><g class="entity" data-qualified-name="GMN7" data-source-line="31" id="ent0008"><path d="M226.12,77.8083 L226.12,101.7783 L191.09,105.7783 L226.12,109.7783 L226.12,133.7399 A0,0 0 0 0 226.12,133.7399 L501.5404,133.7399 A0,0 0 0 0 501.5404,133.7399 L501.5404,87.8083 L491.5404,77.8083 L226.12,77.8083 A0,0 0 0 0 226.12,77.8083" fill="#FEFFDD" style="stroke:#181818;stroke-width:0.5;"/><path d="M491.5404,77.8083 L491.5404,87.8083 L501.5404,87.8083 L491.5404,77.8083" fill="#FEFFDD" style="stroke:#181818;stroke-width:0.5;"/><text fill="#000000" font-family="sans-serif" font-size="13" lengthAdjust="spacing" textLength="149.0239" x="232.12" y="95.3766">Uso real en el proyecto:</text><text fill="#000000" font-family="sans-serif" font-size="13" lengthAdjust="spacing" textLength="254.4204" x="232.12" y="110.6872">- b&#250;squeda exacta por c&#243;digo de barras</text><text fill="#000000" font-family="sans-serif" font-size="13" lengthAdjust="spacing" textLength="248.1426" x="232.12" y="125.9977">- validaci&#243;n de duplicados en inserci&#243;n</text></g><g class="entity" data-qualified-name="GMN10" data-source-line="37" id="ent0011"><path d="M265.41,274.2483 L265.41,313.5283 L231.16,317.5283 L265.41,321.5283 L265.41,360.801 A0,0 0 0 0 265.41,360.801 L496.2508,360.801 A0,0 0 0 0 496.2508,360.801 L496.2508,284.2483 L486.2508,274.2483 L265.41,274.2483 A0,0 0 0 0 265.41,274.2483" fill="#FEFFDD" style="stroke:#181818;stroke-width:0.5;"/><path d="M486.2508,274.2483 L486.2508,284.2483 L496.2508,284.2483 L486.2508,274.2483" fill="#FEFFDD" style="stroke:#181818;stroke-width:0.5;"/><text fill="#000000" font-family="sans-serif" font-size="13" lengthAdjust="spacing" textLength="96.9922" x="271.41" y="291.8166">Clave principal:</text><text fill="#000000" font-family="sans-serif" font-size="13" lengthAdjust="spacing" textLength="104.1206" x="271.41" y="307.1272">product.barcode</text><text fill="#000000" font-family="sans-serif" font-size="13" lengthAdjust="spacing" textLength="4.1133" x="271.41" y="322.4377">&#160;</text><text fill="#000000" font-family="sans-serif" font-size="13" lengthAdjust="spacing" textLength="209.8408" x="271.41" y="337.7483">Complejidad promedio esperada:</text><text fill="#000000" font-family="sans-serif" font-size="13" lengthAdjust="spacing" textLength="73.2393" x="271.41" y="353.0588">acceso O(1)</text></g><!--link HashADT to HashTable--><g class="link" data-entity-1="ent0002" data-entity-2="ent0004" data-link-type="dependency" data-source-line="27" id="lnk5"><path codeLine="27" d="M118.83,167.4383 C118.83,191.2783 118.83,212.8383 118.83,237.7383" fill="none" id="HashADT-to-HashTable" style="stroke:#181818;stroke-width:1;stroke-dasharray:7,7;"/><polygon fill="#181818" points="118.83,243.7383,122.83,234.7383,118.83,238.7383,114.83,234.7383,118.83,243.7383" style="stroke:#181818;stroke-width:1;"/><text fill="#000000" font-family="sans-serif" font-size="13" lengthAdjust="spacing" textLength="128.6479" x="119.83" y="210.6266">implementaci&#243;n real</text></g><!--link HashTable to Product--><g class="link" data-entity-1="ent0004" data-entity-2="ent0003" data-link-type="dependency" data-source-line="28" id="lnk6"><path codeLine="28" d="M118.83,391.3883 C118.83,411.8283 118.83,427.4183 118.83,445.6283" fill="none" id="HashTable-to-Product" style="stroke:#181818;stroke-width:1;stroke-dasharray:7,7;"/><polygon fill="#181818" points="118.83,451.6283,122.83,442.6283,118.83,446.6283,114.83,442.6283,118.83,451.6283" style="stroke:#181818;stroke-width:1;"/></g><?plantuml-src RLAnJWCn3Dtp5LQdLeWArXEgL9K19f0eC_8bRXl89KVi5WhYgzXO-sCarpjw5HtzukVtdXsnuWZcqskuGLx174j7Il6BzJL6h40xP9wAH5kkXMvry0_sW-2Yry8hDE7D-YKiq75YDnmO70yT079JJg_dS7ML7YSJ-5G0PzOpHHdMCPYrbZ3A61D6lHhgOEnoZqIgmeRwo9Ba2PrxQeay7AclJln-ZoMXAXXodLIPfgQw09QOQuzLM_mniyN6y9wXiKPjPLk0zP81oMy5EClottpH2OyAA4DmlIXzwNwW8_p0EXskszzuFEaPJTwgsb55NfBNtRU7IEZKeI6tjyQKya48ebsk1CAYkuXwvD2mW3oGWoIxfNICGfr3kVlXrpKP17f7BGXrYA1tt_aGO0XIWeYS6ZVeh6aT9DoiQsTr-XkSXpQBQjuKUGFPnIal-myuSxYXPC9wRMjqXMhNC6wtfTGivCZFISzainKP6u2ufeW62uLQKqfqDxmS7UH-0G00?></g></svg>