<?plantuml 1.2026.2?><svg xmlns="http://www.w3.org/2000/svg" xmlns:xlink="http://www.w3.org/1999/xlink" contentStyleType="text/css" data-diagram-type="CLASS" height="756px" preserveAspectRatio="none" style="width:696px;height:756px;background:#FFFFFF;" version="1.1" viewBox="0 0 696 756" width="696px" zoomAndPan="magnify"><title>TAD B-Tree</title><defs/><g><g class="title" data-source-line="1"><text fill="#000000" font-family="sans-serif" font-size="14" font-weight="bold" lengthAdjust="spacing" textLength="85.873" x="298.4312" y="23.5352">TAD B-Tree</text></g><!--class BTreeADT--><g class="entity" data-qualified-name="BTreeADT" data-source-line="6" id="ent0002"><rect fill="#F1F1F1" height="139.0625" rx="2.5" ry="2.5" style="stroke:#181818;stroke-width:0.5;" width="295.7119" x="27.95" y="44.4883"/><ellipse cx="131.6751" cy="64.7988" fill="#ADD1B2" rx="11" ry="11" style="stroke:#181818;stroke-width:1;"/><path d="M134.1482,70.9419 Q133.5672,71.2407 132.928,71.3901 Q132.2889,71.5396 131.5833,71.5396 Q129.0765,71.5396 127.7566,69.8877 Q126.4368,68.2358 126.4368,65.1147 Q126.4368,61.9854 127.7566,60.3335 Q129.0765,58.6816 131.5833,58.6816 Q132.2889,58.6816 132.9363,58.8311 Q133.5838,58.9805 134.1482,59.2793 L134.1482,62.002 Q133.5174,61.4209 132.9239,61.1511 Q132.3304,60.8813 131.6995,60.8813 Q130.3548,60.8813 129.67,61.948 Q128.9852,63.0146 128.9852,65.1147 Q128.9852,67.2065 129.67,68.2732 Q130.3548,69.3398 131.6995,69.3398 Q132.3304,69.3398 132.9239,69.0701 Q133.5174,68.8003 134.1482,68.2192 Z " fill="#000000"/><text fill="#000000" font-family="sans-serif" font-size="12" font-style="italic" lengthAdjust="spacing" textLength="37.4297" x="173.3411" y="61.0898">&#171;TAD&#187;</text><text fill="#000000" font-family="sans-serif" font-size="14" lengthAdjust="spacing" textLength="79.7617" x="152.1751" y="77.1563">TAD B-Tree</text><line style="stroke:#181818;stroke-width:0.5;" x1="28.95" x2="322.6619" y1="85.1094" y2="85.1094"/><line style="stroke:#181818;stroke-width:0.5;" x1="28.95" x2="322.6619" y1="93.1094" y2="93.1094"/><text fill="#000000" font-family="sans-serif" font-size="14" lengthAdjust="spacing" textLength="120.5176" x="33.95" y="110.6445">+insert(producto)</text><text fill="#000000" font-family="sans-serif" font-size="14" lengthAdjust="spacing" textLength="101.0283" x="33.95" y="127.1328">+search(fecha)</text><text fill="#000000" font-family="sans-serif" font-size="14" lengthAdjust="spacing" textLength="283.7119" x="33.95" y="143.6211">+search_by_range(fecha_inicio, fecha_fin)</text><text fill="#000000" font-family="sans-serif" font-size="14" lengthAdjust="spacing" textLength="107.0166" x="33.95" y="160.1094">+remove(fecha)</text><text fill="#000000" font-family="sans-serif" font-size="14" lengthAdjust="spacing" textLength="132.0088" x="33.95" y="176.5977">+get_all_products()</text></g><!--class Product--><g class="entity" data-qualified-name="Product" data-source-line="14" id="ent0003"><rect fill="#F1F1F1" height="89.5977" rx="2.5" ry="2.5" style="stroke:#181818;stroke-width:0.5;" width="128.9561" x="111.32" y="659.4283"/><ellipse cx="146.5621" cy="679.7388" fill="#ADD1B2" rx="11" ry="11" style="stroke:#181818;stroke-width:1;"/><path d="M149.0352,685.8819 Q148.4542,686.1807 147.815,686.3301 Q147.1759,686.4796 146.4703,686.4796 Q143.9635,686.4796 142.6436,684.8277 Q141.3238,683.1758 141.3238,680.0547 Q141.3238,676.9254 142.6436,675.2735 Q143.9635,673.6216 146.4703,673.6216 Q147.1759,673.6216 147.8233,673.7711 Q148.4708,673.9205 149.0352,674.2193 L149.0352,676.942 Q148.4044,676.3609 147.8109,676.0911 Q147.2174,675.8213 146.5865,675.8213 Q145.2418,675.8213 144.557,676.888 Q143.8721,677.9546 143.8721,680.0547 Q143.8721,682.1465 144.557,683.2132 Q145.2418,684.2798 146.5865,684.2798 Q147.2174,684.2798 147.8109,684.0101 Q148.4044,683.7403 149.0352,683.1592 Z " fill="#000000"/><text fill="#000000" font-family="sans-serif" font-size="12" font-style="italic" lengthAdjust="spacing" textLength="48.8555" x="166.6194" y="676.0298">&#171;model&#187;</text><text fill="#000000" font-family="sans-serif" font-size="14" lengthAdjust="spacing" textLength="51.9736" x="165.0603" y="692.0962">Product</text><line style="stroke:#181818;stroke-width:0.5;" x1="112.32" x2="239.2761" y1="700.0494" y2="700.0494"/><text fill="#000000" font-family="sans-serif" font-size="14" lengthAdjust="spacing" textLength="116.9561" x="117.32" y="717.5845">+expiry_date: str</text><text fill="#000000" font-family="sans-serif" font-size="14" lengthAdjust="spacing" textLength="75.3799" x="117.32" y="734.0728">+name: str</text><line style="stroke:#181818;stroke-width:0.5;" x1="112.32" x2="239.2761" y1="741.0259" y2="741.0259"/></g><!--class BTreeNode--><g class="entity" data-qualified-name="BTreeNode" data-source-line="19" id="ent0004"><rect fill="#F1F1F1" height="97.4648" rx="2.5" ry="2.5" style="stroke:#181818;stroke-width:0.5;" width="107.4365" x="122.08" y="484.9683"/><ellipse cx="137.8222" cy="500.9683" fill="#ADD1B2" rx="11" ry="11" style="stroke:#181818;stroke-width:1;"/><path d="M140.2954,507.1113 Q139.7143,507.4102 139.0752,507.5596 Q138.436,507.709 137.7304,507.709 Q135.2236,507.709 133.9038,506.0571 Q132.584,504.4053 132.584,501.2842 Q132.584,498.1548 133.9038,496.5029 Q135.2236,494.8511 137.7304,494.8511 Q138.436,494.8511 139.0835,495.0005 Q139.7309,495.1499 140.2954,495.4487 L140.2954,498.1714 Q139.6645,497.5904 139.071,497.3206 Q138.4775,497.0508 137.8467,497.0508 Q136.5019,497.0508 135.8171,498.1175 Q135.1323,499.1841 135.1323,501.2842 Q135.1323,503.376 135.8171,504.4426 Q136.5019,505.5093 137.8467,505.5093 Q138.4775,505.5093 139.071,505.2395 Q139.6645,504.9697 140.2954,504.3887 Z " fill="#000000"/><text fill="#000000" font-family="sans-serif" font-size="14" lengthAdjust="spacing" textLength="73.7871" x="151.9872" y="506.2593">BTreeNode</text><line style="stroke:#181818;stroke-width:0.5;" x1="123.08" x2="228.5165" y1="516.9683" y2="516.9683"/><text fill="#000000" font-family="sans-serif" font-size="14" lengthAdjust="spacing" textLength="70.8887" x="128.08" y="534.5034">+keys: list</text><text fill="#000000" font-family="sans-serif" font-size="14" lengthAdjust="spacing" textLength="95.4365" x="128.08" y="550.9917">+children: list</text><text fill="#000000" font-family="sans-serif" font-size="14" lengthAdjust="spacing" textLength="92.9551" x="128.08" y="567.48">+is_leaf: bool</text><line style="stroke:#181818;stroke-width:0.5;" x1="123.08" x2="228.5165" y1="574.4331" y2="574.4331"/></g><!--class BTree--><g class="entity" data-qualified-name="BTree" data-source-line="25" id="ent0005"><rect fill="#F1F1F1" height="163.418" rx="2.5" ry="2.5" style="stroke:#181818;stroke-width:0.5;" width="337.6025" x="7" y="260.5483"/><ellipse cx="152.4346" cy="276.5483" fill="#ADD1B2" rx="11" ry="11" style="stroke:#181818;stroke-width:1;"/><path d="M154.9077,282.6913 Q154.3267,282.9902 153.6875,283.1396 Q153.0483,283.289 152.3428,283.289 Q149.8359,283.289 148.5161,281.6371 Q147.1963,279.9853 147.1963,276.8642 Q147.1963,273.7348 148.5161,272.0829 Q149.8359,270.4311 152.3428,270.4311 Q153.0483,270.4311 153.6958,270.5805 Q154.3433,270.7299 154.9077,271.0287 L154.9077,273.7514 Q154.2769,273.1704 153.6833,272.9006 Q153.0898,272.6308 152.459,272.6308 Q151.1143,272.6308 150.4294,273.6975 Q149.7446,274.7641 149.7446,276.8642 Q149.7446,278.956 150.4294,280.0226 Q151.1143,281.0893 152.459,281.0893 Q153.0898,281.0893 153.6833,280.8195 Q154.2769,280.5497 154.9077,279.9687 Z " fill="#000000"/><text fill="#000000" font-family="sans-serif" font-size="14" lengthAdjust="spacing" textLength="38.2334" x="172.9346" y="281.8393">BTree</text><line style="stroke:#181818;stroke-width:0.5;" x1="8" x2="343.6025" y1="292.5483" y2="292.5483"/><text fill="#000000" font-family="sans-serif" font-size="14" lengthAdjust="spacing" textLength="121.9395" x="13" y="310.0834">+root: BTreeNode</text><text fill="#000000" font-family="sans-serif" font-size="14" lengthAdjust="spacing" textLength="117.4346" x="13" y="326.5717">+min_degree: int</text><line style="stroke:#181818;stroke-width:0.5;" x1="8" x2="343.6025" y1="333.5248" y2="333.5248"/><text fill="#000000" font-family="sans-serif" font-size="14" lengthAdjust="spacing" textLength="170.3174" x="13" y="351.06">+search(expiry_date: str)</text><text fill="#000000" font-family="sans-serif" font-size="14" lengthAdjust="spacing" textLength="172.751" x="13" y="367.5483">+insert(product: Product)</text><text fill="#000000" font-family="sans-serif" font-size="14" lengthAdjust="spacing" textLength="325.6025" x="13" y="384.0366">+search_by_range(start_date: str, end_date: str)</text><text fill="#000000" font-family="sans-serif" font-size="14" lengthAdjust="spacing" textLength="176.3057" x="13" y="400.5248">+remove(expiry_date: str)</text><text fill="#000000" font-family="sans-serif" font-size="14" lengthAdjust="spacing" textLength="132.0088" x="13" y="417.0131">+get_all_products()</text></g><g class="entity" data-qualified-name="GMN9" data-source-line="40" id="ent0010"><path d="M358.44,93.7083 L358.44,110.0183 L323.89,114.0183 L358.44,118.0183 L358.44,134.3294 A0,0 0 0 0 358.44,134.3294 L673.1588,134.3294 A0,0 0 0 0 673.1588,134.3294 L673.1588,103.7083 L663.1588,93.7083 L358.44,93.7083 A0,0 0 0 0 358.44,93.7083" fill="#FEFFDD" style="stroke:#181818;stroke-width:0.5;"/><path d="M663.1588,93.7083 L663.1588,103.7083 L673.1588,103.7083 L663.1588,93.7083" fill="#FEFFDD" style="stroke:#181818;stroke-width:0.5;"/><text fill="#000000" font-family="sans-serif" font-size="13" lengthAdjust="spacing" textLength="149.0239" x="364.44" y="111.2766">Uso real en el proyecto:</text><text fill="#000000" font-family="sans-serif" font-size="13" lengthAdjust="spacing" textLength="293.7188" x="364.44" y="126.5872">- b&#250;squeda por rango de fechas de expiraci&#243;n</text></g><g class="entity" data-qualified-name="GMN12" data-source-line="45" id="ent0013"><path d="M379.86,298.9783 L379.86,338.2583 L344.78,342.2583 L379.86,346.2583 L379.86,385.531 A0,0 0 0 0 379.86,385.531 L689.7355,385.531 A0,0 0 0 0 689.7355,385.531 L689.7355,308.9783 L679.7355,298.9783 L379.86,298.9783 A0,0 0 0 0 379.86,298.9783" fill="#FEFFDD" style="stroke:#181818;stroke-width:0.5;"/><path d="M679.7355,298.9783 L679.7355,308.9783 L689.7355,308.9783 L679.7355,298.9783" fill="#FEFFDD" style="stroke:#181818;stroke-width:0.5;"/><text fill="#000000" font-family="sans-serif" font-size="13" lengthAdjust="spacing" textLength="98.4648" x="385.86" y="316.5466">Clave de orden:</text><text fill="#000000" font-family="sans-serif" font-size="13" lengthAdjust="spacing" textLength="126.604" x="385.86" y="331.8572">product.expiry_date</text><text fill="#000000" font-family="sans-serif" font-size="13" lengthAdjust="spacing" textLength="4.1133" x="385.86" y="347.1677">&#160;</text><text fill="#000000" font-family="sans-serif" font-size="13" lengthAdjust="spacing" textLength="288.8755" x="385.86" y="362.4783">La operaci&#243;n principal usada por la aplicaci&#243;n</text><text fill="#000000" font-family="sans-serif" font-size="13" lengthAdjust="spacing" textLength="147.875" x="385.86" y="377.7888">es search_by_range(...).</text></g><!--link BTreeADT to BTree--><g class="link" data-entity-1="ent0002" data-entity-2="ent0005" data-link-type="dependency" data-source-line="35" id="lnk6"><path codeLine="35" d="M175.8,183.8183 C175.8,207.8683 175.8,229.0883 175.8,254.0583" fill="none" id="BTreeADT-to-BTree" style="stroke:#181818;stroke-width:1;stroke-dasharray:7,7;"/><polygon fill="#181818" points="175.8,260.0583,179.8,251.0583,175.8,255.0583,171.8,251.0583,175.8,260.0583" style="stroke:#181818;stroke-width:1;"/><text fill="#000000" font-family="sans-serif" font-size="13" lengthAdjust="spacing" textLength="128.6479" x="176.8" y="227.1166">implementaci&#243;n real</text></g><!--reverse link BTree to BTreeNode--><g class="link" data-entity-1="ent0005" data-entity-2="ent0004" data-link-type="composition" data-source-line="36" id="lnk7"><path codeLine="36" d="M175.8,436.4183 C175.8,456.9083 175.8,466.2583 175.8,484.5283" fill="none" id="BTree-backto-BTreeNode" style="stroke:#181818;stroke-width:1;"/><polygon fill="#181818" points="175.8,424.4183,171.8,430.4183,175.8,436.4183,179.8,430.4183,175.8,424.4183" style="stroke:#181818;stroke-width:1;"/></g><!--link BTreeNode to Product--><g class="link" data-entity-1="ent0004" data-entity-2="ent0003" data-link-type="dependency" data-source-line="37" id="lnk8"><path codeLine="37" d="M175.8,582.5383 C175.8,606.5783 175.8,629.5083 175.8,653.0183" fill="none" id="BTreeNode-to-Product" style="stroke:#181818;stroke-width:1;"/><polygon fill="#181818" points="175.8,659.0183,179.8,650.0183,175.8,654.0183,171.8,650.0183,175.8,659.0183" style="stroke:#181818;stroke-width:1;"/><text fill="#000000" font-family="sans-serif" font-size="13" lengthAdjust="spacing" textLength="28.2598" x="176.8" y="625.9966">keys</text></g><?plantuml-src RLB1Rjim3BthAuYUagqsUZQA0Ebw6J0C1PgT3KQcRQAov8bAkspOL-ssQtziakt4HfQRIEazllUemC4GxBQFy93jF95IyiAsHuyTQ8CYsn0yxm-1Fcjdd_admTtYYRHOkJUs3THe9A873DpCX3U00W_fj7tSmVrzlDbiu9S2-CXMo8TLxrrrqC6jKqy8lMvNDUaM5uroVomzseR6cv8jQtQtC5Ors-6jfywzqWBSK2ZHc78Q8Qkr-dtI-3JsegJELMHEekX7p_vOLXYe00a-zInsKt563uw-Hk28Ug6Z561OGgfqowRoPESEIsa8wmBspfaBbf71EnUAcJQrEhPbHKti5C0sBEAv5Bd-FyxYPF1gYXBGXnb_2sIh2xefpAkZhkTwtdAURoPhKNZN6-h81jJy_iU29pJZI_YGPGl3Sw9PjZblfu0KhLBM1GBFJHl0rUV_fBw96nYZVY03KS-HubSgL0Rxzx_o_K0LGkyy9DiE8ldmEIIT1cUZAXNjGnfnTP3wPF2L4iJvAcvLJRRpHJPAVK5mFKs4KGbRpNrKTX2SD1W4x0thqqo1oxNaURxEPp7_0000?></g></svg>